<?xml version="1.0" standalone="no"?>
<!DOCTYPE svg PUBLIC "-//W3C//DTD SVG 20010904//EN"
 "http://www.w3.org/TR/2001/REC-SVG-20010904/DTD/svg10.dtd">
<svg version="1.0" xmlns="http://www.w3.org/2000/svg"
 width="1301.000000pt" height="154.000000pt" viewBox="0 0 1301.000000 154.000000"
 preserveAspectRatio="xMidYMid meet">

<g transform="translate(0.000000,154.000000) scale(0.100000,-0.100000)"
fill="#000000" stroke="none">
<path d="M7939 1181 c-17 -18 -29 -40 -29 -56 0 -38 50 -85 90 -85 40 0 90 47
90 85 0 16 -12 38 -29 56 -40 39 -82 39 -122 0z m93 -18 c22 -20 23 -51 1 -75
-31 -34 -83 -12 -83 37 0 48 47 70 82 38z"/>
<path d="M4450 1075 l0 -95 -160 0 -160 0 0 -50 0 -50 160 0 160 0 0 -62 c0
-112 -62 -194 -181 -238 -64 -24 -65 -28 -33 -92 13 -25 16 -26 51 -16 109 30
216 115 254 201 14 33 24 80 27 130 l5 77 138 0 139 0 0 50 0 50 -140 0 -140
0 0 95 0 95 -60 0 -60 0 0 -95z"/>
<path d="M9111 1101 c-31 -92 -88 -177 -161 -244 l-59 -53 30 -37 31 -37 45
32 c25 18 69 59 99 91 l53 57 100 0 c56 0 101 -2 101 -5 0 -2 -5 -28 -11 -57
-32 -149 -123 -231 -299 -269 l-48 -10 14 -46 c8 -26 16 -48 18 -51 9 -8 172
39 221 64 121 61 196 174 220 332 l7 42 99 0 99 0 0 50 0 50 -234 0 -235 0 20
57 c26 75 25 93 -5 93 -13 0 -36 3 -52 6 -28 5 -30 3 -53 -65z"/>
<path d="M2217 1098 c-17 -67 -55 -160 -79 -192 -14 -17 -20 -15 -134 48
l-119 66 -32 -37 c-18 -21 -32 -40 -33 -43 0 -3 52 -35 115 -73 63 -37 115
-71 115 -76 0 -32 -178 -165 -270 -201 -30 -12 -56 -23 -58 -25 -3 -2 35 -83
43 -93 1 -1 35 10 75 24 89 33 197 103 268 173 l52 53 53 -43 c28 -23 68 -58
88 -76 l35 -34 41 49 41 48 -86 69 c-48 38 -91 72 -96 76 -4 4 4 27 18 52 32
54 81 187 91 245 7 42 6 42 -23 42 -16 0 -43 3 -59 6 -30 6 -30 5 -46 -58z"/>
<path d="M8650 969 c0 -115 -5 -197 -12 -223 -26 -86 -115 -141 -270 -166 -43
-7 -78 -15 -78 -17 0 -2 5 -25 11 -50 l12 -45 56 7 c187 22 311 89 369 199 26
50 27 56 30 264 l4 212 -61 0 -61 0 0 -181z"/>
<path d="M10636 1108 l-25 -42 117 -42 c64 -23 138 -51 165 -62 l47 -21 25 49
25 48 -79 30 c-43 17 -110 40 -147 52 -38 11 -77 23 -86 26 -11 3 -24 -8 -42
-38z"/>
<path d="M8230 925 l0 -215 55 0 55 0 0 215 0 215 -55 0 -55 0 0 -215z"/>
<path d="M2606 1090 c-14 -22 -26 -42 -26 -45 0 -3 48 -29 108 -59 59 -30 125
-66 148 -80 l40 -25 37 49 37 50 -152 75 c-84 41 -156 75 -159 75 -4 0 -18
-18 -33 -40z"/>
<path d="M5006 1090 c-14 -22 -26 -42 -26 -45 0 -3 48 -29 108 -59 59 -30 125
-66 148 -80 l40 -25 37 49 37 50 -152 75 c-84 41 -156 75 -159 75 -4 0 -18
-18 -33 -40z"/>
<path d="M6550 1080 l0 -50 280 0 281 0 -16 -30 c-18 -36 -120 -142 -152 -159
-23 -12 -23 -12 -23 69 l0 80 -59 0 -58 0 -5 -102 c-7 -163 -58 -248 -179
-303 -33 -14 -59 -28 -59 -30 0 -3 7 -23 16 -45 19 -47 21 -47 123 2 111 53
194 160 208 269 6 42 16 49 32 22 33 -57 36 -57 84 -24 106 72 237 243 237
308 0 42 -9 43 -367 43 l-343 0 0 -50z"/>
<path d="M12206 1090 c-14 -22 -26 -42 -26 -45 0 -3 48 -29 108 -59 59 -30
125 -66 148 -80 l40 -25 37 49 37 50 -152 75 c-84 41 -156 75 -159 75 -4 0
-18 -18 -33 -40z"/>
<path d="M3370 1070 l0 -50 320 0 320 0 0 50 0 50 -320 0 -320 0 0 -50z"/>
<path d="M5800 1070 l0 -50 195 0 c107 0 195 -3 195 -6 0 -3 -15 -34 -32 -67
-63 -117 -243 -285 -390 -362 -38 -20 -68 -38 -68 -41 0 -2 12 -22 26 -44 23
-35 28 -38 51 -29 73 27 224 130 305 207 l36 34 54 -48 c29 -26 89 -83 133
-126 l81 -78 43 44 43 43 -89 79 c-48 44 -111 99 -140 122 l-51 44 52 77 c28
43 63 110 76 148 36 108 48 103 -261 103 l-259 0 0 -50z"/>
<path d="M7310 1070 l0 -50 245 0 c280 0 254 11 231 -101 -8 -37 -26 -89 -39
-116 -53 -104 -186 -188 -348 -219 l-87 -17 16 -46 c8 -25 16 -47 18 -49 1 -2
41 4 89 13 277 52 424 187 471 433 18 95 18 136 -1 152 -8 7 -15 21 -15 31 0
18 -13 19 -290 19 l-290 0 0 -50z"/>
<path d="M1362 1096 c-161 -53 -236 -259 -160 -438 59 -138 233 -194 403 -131
l50 19 3 63 3 64 -35 -27 c-107 -81 -230 -72 -287 21 -21 33 -24 51 -24 133 0
145 42 208 145 218 49 4 119 -21 178 -64 l22 -16 0 64 0 65 -52 18 c-71 23
-191 29 -246 11z"/>
<path d="M187 813 c-59 -159 -107 -292 -107 -296 0 -4 28 -7 61 -5 l61 3 23
60 22 60 116 3 115 3 22 -66 22 -65 68 0 68 0 -112 295 -111 295 -70 0 -70 0
-108 -287z m217 39 c20 -57 36 -108 36 -113 0 -5 -36 -9 -81 -9 -73 0 -80 2
-74 18 4 9 20 55 36 102 38 112 39 113 43 109 2 -2 20 -51 40 -107z"/>
<path d="M730 805 l0 -295 205 0 205 0 0 50 0 50 -140 0 -140 0 0 245 0 245
-65 0 -65 0 0 -295z"/>
<path d="M11400 970 l0 -40 215 0 215 0 0 -65 0 -65 -210 0 -210 0 0 -40 0
-40 210 0 210 0 0 -75 0 -75 -220 0 -220 0 0 -45 0 -45 270 0 270 0 0 265 0
265 -265 0 -265 0 0 -40z"/>
<path d="M10560 910 c-12 -23 -19 -44 -16 -47 2 -3 56 -22 120 -43 63 -22 133
-48 156 -60 23 -12 43 -20 45 -18 16 18 45 92 38 98 -11 11 -187 75 -243 90
-25 6 -53 13 -62 16 -12 4 -23 -7 -38 -36z"/>
<path d="M3135 883 c-101 -152 -248 -242 -457 -279 -51 -9 -95 -18 -97 -20 -2
-2 2 -26 9 -54 l12 -51 47 6 c175 24 353 97 454 187 53 46 157 179 157 199 0
4 -20 22 -44 38 l-44 30 -37 -56z"/>
<path d="M5535 883 c-101 -152 -248 -242 -457 -279 -51 -9 -95 -18 -97 -20 -2
-2 2 -26 9 -54 l12 -51 47 6 c175 24 353 97 454 187 53 46 157 179 157 199 0
4 -20 22 -44 38 l-44 30 -37 -56z"/>
<path d="M12735 883 c-101 -152 -248 -242 -457 -279 -51 -9 -95 -18 -97 -20
-2 -2 2 -26 9 -54 l12 -51 47 6 c175 24 353 97 454 187 53 46 157 179 157 199
0 4 -20 22 -44 38 l-44 30 -37 -56z"/>
<path d="M11123 863 c-105 -144 -254 -226 -471 -263 -71 -12 -73 -13 -67 -37
3 -14 9 -38 12 -54 6 -34 6 -34 113 -13 174 33 317 102 420 203 56 55 130 156
130 176 0 6 -20 21 -44 32 l-44 22 -49 -66z"/>
<path d="M3330 870 l0 -50 160 0 c159 0 160 0 160 -22 0 -100 -74 -183 -196
-223 l-52 -17 16 -49 c15 -48 17 -49 47 -43 59 13 131 46 182 84 61 47 108
132 118 215 l7 55 139 0 139 0 0 50 0 50 -360 0 -360 0 0 -50z"/>
<path d="M9730 810 l0 -50 360 0 360 0 0 50 0 50 -360 0 -360 0 0 -50z"/>
</g>
</svg>
