<svg version="1.1" id="g_nav_tit" xmlns="http://www.w3.org/2000/svg" xmlns:xlink="http://www.w3.org/1999/xlink" x="0px"
	 y="0px" viewBox="0 0 210.6 14.5" style="enable-background:new 0 0 210.6 14.5;" xml:space="preserve">
<style type="text/css">
	.st0{fill:#4D4D4D;}
</style>
<path class="st0" d="M3.3,5.8c0.8,0.7,1.3,1.1,2,1.8c0.9,0.9,0.9,0.9,1,1c0.8-0.7,1.5-1.3,2.1-2c0.7-0.8,1.6-2,2-2.6
	c0-0.1,0-0.1,0.1-0.1c0,0,0,0,0-0.1c-0.2,0-0.4,0-0.7,0H3.9H2c-1.3,0-1.5,0-2,0.1v-2C0.6,1.9,1,2,2.1,2l8.9,0c0.7,0,0.9,0,1.3-0.1
	l1.1,1.3c-0.2,0.3-0.3,0.4-0.7,0.9c-1.5,2.4-3.2,4.4-5.2,6.1c0.7,0.8,1.3,1.5,2.1,2.7L8,14.1c-0.9-1.4-1.7-2.5-3.1-4
	C3.7,8.7,2.9,7.9,1.7,7L3.3,5.8z"/>
<path class="st0" d="M28.6,1.8C28.3,2,28.2,2.1,28,2.4c-1.2,1.2-2.4,2.3-3.8,3.3v6.8c0,0.9,0,1.3,0.1,1.8h-2.2
	c0.1-0.5,0.1-0.8,0.1-1.7V6.9c-1.9,1.1-2.8,1.5-5.7,2.6c-0.3-0.8-0.5-1.1-1.1-1.8c3.2-0.9,5.9-2.2,8.4-4.2c1.4-1.1,2.5-2.2,3-3
	L28.6,1.8z"/>
<path class="st0" d="M44.6,4.1c-0.1,0.3-0.2,0.5-0.2,1.1c0,1.8-0.2,4.3-0.4,5.3c-0.4,2.8-1,3.4-2.9,3.4c-0.6,0-1.2,0-2-0.2
	c0-1-0.1-1.3-0.4-2c0.9,0.3,1.6,0.4,2.1,0.4c0.7,0,0.9-0.4,1.2-1.7c0.2-1.1,0.4-3.3,0.4-5.1l-3.7,0c-0.2,2-0.6,3.2-1.3,4.6
	c-0.9,1.7-2.3,3.2-4.3,4.4c-0.5-0.8-0.8-1.1-1.4-1.7c2-1.1,3.3-2.3,4.2-4c0.4-0.9,0.7-1.7,0.8-2.8c0-0.2,0.1-0.4,0.1-0.5l-2.7,0
	c-1,0-1.2,0-1.7,0.1l0-2c0.5,0.1,1,0.1,1.8,0.1l2.8,0c0-0.6,0.1-1.5,0.1-2V1c0-0.2,0-0.3,0-0.6l2.1,0c0,0.2,0,0.3-0.1,0.5
	c0,0.1,0,0.2,0,0.3c0,0.3,0,0.3-0.1,1.2c0,0.4,0,0.5-0.1,1l3.6,0c0.7,0,0.9,0,1.3-0.1L44.6,4.1z"/>
<path class="st0" d="M52.4,1.1c-0.1,0.4-0.1,0.4-0.2,3.6c-0.1,3.1-0.5,4.9-1.3,6.6c-0.5,1.1-1.2,1.9-2.2,3c-0.6-0.8-0.9-1-1.6-1.6
	c0.8-0.6,1.2-1.1,1.6-1.8c1.2-1.8,1.5-3.9,1.5-8.4c0-0.9,0-1-0.1-1.5L52.4,1.1z M56.7,0.9c-0.1,0.5-0.1,0.7-0.1,1.5l-0.1,9.1
	c1.1-0.5,1.8-1,2.4-1.8c0.7-0.9,1.2-1.7,1.6-2.9C61,7.5,61.3,7.7,62,8.3c-0.7,1.6-1.5,2.8-2.5,3.7c-0.9,0.8-1.7,1.3-3.4,1.9
	c-0.4,0.1-0.5,0.2-0.7,0.3l-1-1.1c0.1-0.5,0.1-0.8,0.1-1.7l0.1-9V2c0-0.4,0-0.8-0.1-1.1L56.7,0.9z"/>
<path class="st0" d="M71.8,7c-0.1,1.8-0.4,3.2-1.1,4.3c-0.8,1.4-2,2.3-4.2,3.2c-0.4-0.8-0.6-1.1-1.3-1.8c1.9-0.6,3.1-1.4,3.8-2.7
	c0.4-0.7,0.7-1.8,0.7-3h-3.9c-1.1,0-1.5,0-2,0.1V5.2c0.6,0.1,1,0.1,2.1,0.1h9.4c1.1,0,1.5,0,2.1-0.1v1.9C76.7,7,76.3,7,75.2,7H71.8z
	 M65.4,1.1c0.6,0.1,0.9,0.1,2.1,0.1h6.1c1.2,0,1.5,0,2.1-0.1v2C75.1,3,74.7,3,73.6,3h-6.2c-1.1,0-1.5,0-2,0.1V1.1z"/>
<path class="st0" d="M92.3,4.5c0,0.3,0,0.3-0.1,1.3c-0.1,2.7-0.5,4.3-1.6,5.7c-1,1.2-2.1,2-4.1,2.9c-0.4-0.9-0.6-1.2-1.3-1.8
	c1.3-0.4,2-0.7,2.8-1.4c1.6-1.3,2.1-2.7,2.1-5.7c0-0.5,0-0.6-0.1-1H92.3z M98.8,2.5c-0.2,0.3-0.2,0.3-0.6,1.1
	c-0.6,1.2-1.5,2.4-2.5,3.2c-0.6,0.6-1.2,0.9-1.9,1.3c-0.5-0.7-0.7-0.9-1.4-1.5c1.1-0.5,1.7-0.8,2.3-1.5c0.7-0.6,1.2-1.3,1.5-2h-8.4
	c-1.1,0-1.5,0-2.2,0.1v-2c0.6,0.1,1.1,0.1,2.2,0.1h8.4c1,0,1.1,0,1.6-0.1L98.8,2.5z"/>
<path class="st0" d="M111,1.9c0.5,0,0.7,0,0.9,0c0-1,0.8-1.9,1.8-1.9c1,0,1.9,0.8,1.9,1.8c0,1-0.8,1.9-1.9,1.9c-0.1,0-0.2,0-0.3,0
	c-1.3,5.2-4.1,8.5-9.2,10.6c-0.4-0.8-0.7-1.2-1.4-1.9c4.4-1.4,7.3-4.4,8.4-8.6h-7.6c-1.2,0-1.5,0-2,0.1V1.8c0.6,0.1,1,0.1,2,0.1H111
	z M112.7,1.8c0,0.6,0.5,1.1,1,1.1c0.6,0,1.1-0.5,1.1-1.1c0-0.6-0.5-1-1.1-1C113.2,0.8,112.7,1.3,112.7,1.8"/>
<path class="st0" d="M121.3,0.9c-0.1,0.4-0.1,0.6-0.1,1.4v4.4c0,0.8,0,1,0.1,1.4h-2.2c0-0.4,0.1-0.9,0.1-1.4V2.3c0-0.8,0-1-0.1-1.4
	L121.3,0.9z M128.5,0.9c-0.1,0.4-0.1,0.6-0.1,1.5v2.2c0,2.5-0.1,3.8-0.4,4.8c-0.5,1.6-1.5,2.8-3.2,3.7c-0.8,0.5-1.6,0.8-3.1,1.2
	c-0.3-0.8-0.4-1.1-1.1-1.9c1.6-0.3,2.5-0.6,3.5-1.3c1.5-1,2-2,2.2-4.1c0.1-0.7,0.1-1.4,0.1-2.7v-2c0-0.8,0-1.2-0.1-1.5H128.5z"/>
<path class="st0" d="M142.7,5.1c0,0.2,0,0.2,0,0.4c-0.2,2.7-0.8,4.4-2.1,5.9c-1,1.2-2.2,2-4.2,2.9c-0.4-0.8-0.6-1.1-1.3-1.8
	c1.4-0.5,2.3-1,3.2-1.8c1.5-1.3,2.1-2.9,2.3-5.7h-3.8c-0.9,1.5-1.5,2.2-2.7,3.2c-0.6-0.7-0.9-0.8-1.6-1.3c1.5-1.2,2.5-2.6,3.4-4.4
	c0.5-1,0.7-1.6,0.8-2.3l2.1,0.5c-0.1,0.3-0.1,0.3-0.6,1.4c-0.1,0.3-0.3,0.6-0.5,1c0.5,0,0.5,0,7,0c1.2,0,1.3,0,2-0.1v2
	c-0.4,0-0.4,0-1,0c-0.2,0-0.6,0-1.1,0H142.7z"/>
<path class="st0" d="M149,6.3c0.7,0.1,1,0.1,2.6,0.1h8.5c1.6,0,1.9,0,2.6-0.1v2.2c-0.6-0.1-0.8-0.1-2.6-0.1h-8.5c-1.8,0-2,0-2.6,0.1
	V6.3z"/>
<path class="st0" d="M166.7,4.7c1.6,0.7,2.9,1.3,4.3,2.2l-1,1.8c-1.3-0.9-2.7-1.7-4.3-2.4L166.7,4.7z M166,11.9c1.2,0,3-0.4,4.6-1
	c2-0.8,3.3-1.8,4.6-3.5c0.9-1.2,1.4-2.1,1.9-3.5c0.7,0.7,0.9,0.9,1.7,1.4c-0.7,1.8-1.4,2.9-2.4,4.1c-2,2.3-4.8,3.8-8.7,4.5
	c-0.6,0.1-0.8,0.2-1.1,0.3L166,11.9z M167.9,0.8c1.6,0.6,2.9,1.2,4.3,2.1l-1,1.8c-1.5-1-2.9-1.7-4.3-2.2L167.9,0.8z"/>
<path class="st0" d="M184.4,13.8c-0.8,0-1,0-1.4,0.1v-1.8c0.4,0.1,0.8,0.1,1.4,0.1h6.1V9.8H185c-0.8,0-1,0-1.4,0.1V8.1
	c0.4,0.1,0.8,0.1,1.4,0.1h5.6V6h-6c-0.8,0-1,0-1.4,0.1V4.3c0.4,0.1,0.8,0.1,1.4,0.1h6.3c0.6,0,1,0,1.5-0.1c0,0.6,0,1,0,1.7v7.3
	c0,0.6,0,0.8,0.1,1.2h-1.8v-0.8H184.4z"/>
<path class="st0" d="M197.8,11.6c1.4-0.1,3.3-0.5,4.7-1.2c2-0.9,3.5-2.1,4.8-3.9c0.7-1,1.2-1.9,1.6-3.2c0.6,0.8,0.9,1,1.7,1.6
	c-1.4,2.9-2.9,4.8-5.1,6.3c-1.6,1.1-3.6,1.9-6.1,2.4c-0.6,0.1-0.7,0.1-1.1,0.3L197.8,11.6z M199.1,1.7c1.9,1.2,2.9,1.9,4.1,3.1
	l-1.4,1.7c-1.3-1.4-2.6-2.4-4.1-3.3L199.1,1.7z"/>
</svg>
