<svg version="1.1" id="inspection__g_nav_tit" xmlns="http://www.w3.org/2000/svg" xmlns:xlink="http://www.w3.org/1999/xlink" x="0px"
	 y="0px" viewBox="0 0 163.6 14.9" style="enable-background:new 0 0 163.6 14.9;" xml:space="preserve">
<style type="text/css">
	.st0{fill:#4D4D4D;}
</style>
<path class="st0" d="M8.3,5.2c-0.6,0-0.9,0-1.3,0V4.5c-0.7,0.5-0.9,0.7-1.5,1C5.2,5,5.2,4.9,5,4.6c-0.3,0-0.4,0-0.6,0H4
	c0.4,0.9,0.8,1.7,1.6,2.7C5.3,7.8,5.1,8.2,4.9,8.8C4.3,7.7,4.3,7.7,3.8,6.6c0,0.5,0.1,1.2,0.1,2.1v4.1c0,0.8,0,1.5,0.1,2H2.2
	c0.1-0.5,0.1-1.2,0.1-2V9.6c0-0.5,0-1.3,0.1-2.1C1.9,8.9,1.9,9.1,1.6,9.8c-0.1,0.2-0.3,0.7-0.7,1.5C0.6,10.4,0.4,10,0,9.5
	c0.8-1.2,1.8-3.4,2.1-4.9H1.5c-0.5,0-0.8,0-1.1,0.1V2.9c0.3,0,0.6,0.1,1.1,0.1h0.8V1.7c0-0.8,0-1.3-0.1-1.7H4
	C3.9,0.5,3.9,0.9,3.9,1.7v1.3h0.5c0.4,0,0.6,0,0.9-0.1v0.9C5.8,3.4,6.4,3,7,2.5c0.8-0.8,1.3-1.4,1.9-2.3h1.8c0.4,0.8,1,1.3,1.9,2.1
	c0.9,0.7,1.8,1.2,2.8,1.7c-0.4,0.5-0.6,1-0.8,1.6c-0.7-0.4-1.1-0.6-1.8-1v0.8c-0.4,0-0.7,0-1.3,0h-0.8v1h2.1c0.7,0,1,0,1.4,0
	c0,0.5,0,0.8,0,1.2v2c0,0.5,0,0.8,0,1.2c-0.5,0-0.8-0.1-1.5-0.1h-1.6c1,1.3,2.4,2.2,4.3,2.6c-0.4,0.6-0.7,1.1-0.9,1.7
	c-1.2-0.4-2.4-1.1-3.2-1.9c-0.6-0.6-1-1-1.3-1.7C9,13,7.7,14.1,5.5,14.8c-0.3-0.7-0.5-1.1-1-1.6c2.1-0.4,3.1-1.2,3.9-2.7H7.1
	c-0.6,0-1,0-1.5,0.1c0-0.4,0-0.7,0-1V7.3c0-0.4,0-0.7,0-1.1c0.4,0,0.6,0,1.4,0h2v-1H8.3z M7.3,7.6v1.6h1.5c0.1-0.5,0.1-0.7,0.1-1.6
	H7.3z M11.4,3.7h0.4c-0.9-0.7-1.4-1.2-2-2.2C9.2,2.5,8.7,3.1,8,3.7h0.4H11.4z M10.5,7.6c0,0.7-0.1,1.1-0.1,1.6h2V7.6H10.5z"/>
<path class="st0" d="M22.6,1.3c0-0.5,0-0.8-0.1-1.2h1.9c-0.1,0.4-0.1,0.7-0.1,1.2v0.2h4.5c0.7,0,1.3,0,1.8-0.1v1.7
	c-0.5-0.1-1.1-0.1-1.8-0.1h-3C27.1,4.4,29,5.4,31.2,6c-0.4,0.6-0.6,0.9-1,1.7c-1-0.4-1.2-0.5-2-1c0,0.5,0,0.5,0,1v5.1H29
	c0.8,0,1.3,0,1.8-0.1v1.7c-0.5-0.1-1.1-0.1-1.9-0.1H18.2c-0.8,0-1.4,0-1.9,0.1v-1.7c0.5,0.1,1,0.1,1.8,0.1h0.8V7.5
	c0-0.5,0-0.6,0-0.9C18.4,7,18.2,7.1,17,7.6c-0.3-0.6-0.5-0.9-1-1.5c2-0.6,3.8-1.7,5.1-3h-2.8c-0.7,0-1.3,0-1.8,0.1V1.4
	c0.4,0.1,1.1,0.1,1.9,0.1h4.2V1.3z M22.6,4.3c0,0,0-0.3,0-0.8C21.9,4.4,21.1,5.3,20,6h0.8h5.8h0.6c-1.3-0.8-2-1.5-2.8-2.6
	c0,0.5,0,0.8,0,0.9v0.4c0,0.4,0,0.7,0.1,1h-1.9c0-0.3,0.1-0.6,0.1-1V4.3z M20.6,8.3h5.8V7.4h-5.8V8.3z M20.6,10.5h5.8V9.7h-5.8V10.5
	z M20.6,12.8h5.8v-0.9h-5.8V12.8z"/>
<path class="st0" d="M45.4,4.5c0,0.3,0,0.3-0.1,1.3c-0.1,2.7-0.5,4.3-1.6,5.7c-1,1.2-2.1,2-4.1,2.9c-0.4-0.9-0.6-1.2-1.3-1.8
	c1.3-0.4,2-0.7,2.8-1.4c1.6-1.3,2.1-2.7,2.1-5.7c0-0.5,0-0.6-0.1-1H45.4z M51.9,2.5c-0.2,0.3-0.2,0.3-0.6,1.1
	c-0.6,1.2-1.5,2.4-2.5,3.2c-0.6,0.6-1.2,0.9-1.9,1.3c-0.5-0.7-0.7-0.9-1.4-1.5c1.1-0.5,1.7-0.8,2.3-1.5c0.7-0.6,1.2-1.3,1.5-2h-8.4
	c-1.1,0-1.5,0-2.2,0.1v-2c0.6,0.1,1.1,0.1,2.2,0.1h8.4c1,0,1.1,0,1.6-0.1L51.9,2.5z"/>
<path class="st0" d="M64,1.9c0.5,0,0.7,0,0.9,0c0-1,0.8-1.9,1.8-1.9c1,0,1.9,0.8,1.9,1.8c0,1-0.8,1.9-1.9,1.9c-0.1,0-0.2,0-0.3,0
	c-1.3,5.2-4.1,8.5-9.2,10.6c-0.4-0.8-0.7-1.2-1.4-1.9c4.4-1.4,7.3-4.4,8.4-8.6h-7.6c-1.2,0-1.5,0-2,0.1V1.8c0.6,0.1,1,0.1,2,0.1H64z
	 M65.8,1.8c0,0.6,0.5,1.1,1,1.1c0.6,0,1.1-0.5,1.1-1.1c0-0.6-0.5-1-1.1-1C66.2,0.8,65.8,1.3,65.8,1.8"/>
<path class="st0" d="M74.3,0.9c-0.1,0.4-0.1,0.6-0.1,1.4v4.4c0,0.8,0,1,0.1,1.4h-2.2c0-0.4,0.1-0.9,0.1-1.4V2.3c0-0.8,0-1-0.1-1.4
	L74.3,0.9z M81.6,0.9c-0.1,0.4-0.1,0.6-0.1,1.5v2.2c0,2.5-0.1,3.8-0.4,4.8c-0.5,1.6-1.5,2.8-3.2,3.7c-0.8,0.5-1.6,0.8-3.1,1.2
	c-0.3-0.8-0.4-1.1-1.1-1.9c1.6-0.3,2.5-0.6,3.5-1.3c1.5-1,2-2,2.2-4.1c0.1-0.7,0.1-1.4,0.1-2.7v-2c0-0.8,0-1.2-0.1-1.5H81.6z"/>
<path class="st0" d="M95.8,5.1c0,0.2,0,0.2,0,0.4c-0.2,2.7-0.8,4.4-2.1,5.9c-1,1.2-2.2,2-4.2,2.9c-0.4-0.8-0.6-1.1-1.3-1.8
	c1.4-0.5,2.3-1,3.2-1.8c1.5-1.3,2.1-2.9,2.3-5.7h-3.8c-0.9,1.5-1.5,2.2-2.7,3.2c-0.6-0.7-0.9-0.8-1.6-1.3c1.5-1.2,2.5-2.6,3.4-4.4
	c0.5-1,0.7-1.6,0.8-2.3l2.1,0.5c-0.1,0.3-0.1,0.3-0.6,1.4c-0.1,0.3-0.3,0.6-0.5,1c0.5,0,0.5,0,7,0c1.2,0,1.3,0,2-0.1v2
	c-0.4,0-0.4,0-1,0c-0.2,0-0.6,0-1.1,0H95.8z"/>
<path class="st0" d="M102,6.3c0.7,0.1,1,0.1,2.6,0.1h8.5c1.6,0,1.9,0,2.6-0.1v2.2c-0.6-0.1-0.8-0.1-2.6-0.1h-8.5c-1.8,0-2,0-2.6,0.1
	V6.3z"/>
<path class="st0" d="M119.8,4.7c1.6,0.7,2.9,1.3,4.3,2.2l-1,1.8c-1.3-0.9-2.7-1.7-4.3-2.4L119.8,4.7z M119,11.9c1.2,0,3-0.4,4.6-1
	c2-0.8,3.3-1.8,4.6-3.5c0.9-1.2,1.4-2.1,1.9-3.5c0.7,0.7,0.9,0.9,1.7,1.4c-0.7,1.8-1.4,2.9-2.4,4c-2,2.3-4.8,3.8-8.7,4.5
	c-0.6,0.1-0.8,0.2-1.1,0.3L119,11.9z M121,0.8c1.6,0.6,2.9,1.2,4.3,2.1l-1,1.8c-1.5-1-2.9-1.7-4.3-2.2L121,0.8z"/>
<path class="st0" d="M137.5,13.8c-0.8,0-1,0-1.4,0.1v-1.8c0.4,0.1,0.8,0.1,1.4,0.1h6.1V9.8H138c-0.8,0-1,0-1.4,0.1V8.1
	c0.4,0.1,0.8,0.1,1.4,0.1h5.6V6h-6c-0.8,0-1,0-1.4,0.1V4.3c0.4,0.1,0.8,0.1,1.4,0.1h6.3c0.6,0,1,0,1.5-0.1c0,0.6,0,1,0,1.7v7.3
	c0,0.6,0,0.8,0.1,1.2h-1.8v-0.8H137.5z"/>
<path class="st0" d="M150.8,11.6c1.4-0.1,3.3-0.5,4.7-1.2c2-0.9,3.5-2.1,4.8-3.9c0.7-1,1.2-1.9,1.6-3.2c0.6,0.8,0.9,1,1.7,1.6
	c-1.4,2.9-2.9,4.8-5.1,6.3c-1.6,1.1-3.6,1.9-6.1,2.4c-0.6,0.1-0.7,0.1-1.1,0.3L150.8,11.6z M152.2,1.7c1.9,1.2,2.9,1.9,4.1,3.1
	l-1.4,1.7c-1.3-1.4-2.6-2.4-4.1-3.2L152.2,1.7z"/>
</svg>
