<?xml version="1.0" encoding="utf-8"?>
<!-- Generator: Adobe Illustrator 15.0.0, SVG Export Plug-In . SVG Version: 6.00 Build 0)  -->
<!DOCTYPE svg PUBLIC "-//W3C//DTD SVG 1.1//EN" "http://www.w3.org/Graphics/SVG/1.1/DTD/svg11.dtd">
<svg version="1.1" id="logo_wh" xmlns="http://www.w3.org/2000/svg" xmlns:xlink="http://www.w3.org/1999/xlink" x="0px" y="0px"
	 width="300px" height="82px" viewBox="445.275 379.445 300 82" enable-background="new 445.275 379.445 300 82"
	 xml:space="preserve">
<path fill="#FFFFFF" d="M550.012,413.891c-1.176,5.683-2.743,6.858-7.838,6.858l-2.352-4.703c0.588,0,1.372,0.196,2.155,0.196
	c1.96,0,2.743-0.979,3.135-2.352c0.588-2.547,1.568-10.385,1.764-18.418h-2.743c-0.784,9.013-2.547,16.655-9.209,25.081
	l-4.507-2.547c0.588-0.588,1.176-0.98,2.352-2.548c-2.155,0.196-12.933,1.568-15.479,1.764c-0.979,0.196-1.176,0-1.372,0.588
	c-0.392,0.588-0.588,0.588-0.98,0.588c-0.392,0-0.588-0.196-0.588-0.784l-0.588-4.115c2.743,0,7.054-0.392,8.622-0.588v-2.352
	h-7.446v-3.331h7.446v-1.959h-7.054v-11.953h7.054v-1.959h-9.014v-3.527h9.014v-1.959c-0.98,0-2.548,0.196-5.683,0.196l-1.567-3.527
	c5.486,0.196,10.973,0,16.263-1.372l2.351,2.939c0.196,0.196,0.392,0.392,0.392,0.588c0,0.196-0.196,0.392-0.588,0.392
	c-0.196,0-1.175-0.392-1.567-0.392c-0.196,0-1.568,0.196-1.959,0.392c0,0-1.959,0.196-2.939,0.392v2.351h9.014v3.527h-9.014v1.959
	h7.054v11.953h-7.054v1.959h7.25v3.331h-7.25v2.155c4.311-0.392,4.898-0.392,7.446-0.588v1.372c0.783-1.176,1.959-3.135,3.135-6.858
	c1.372-4.702,1.959-8.817,2.155-11.168h-3.527v-4.703h3.331c0-4.898,0-5.095,0-9.209l4.899,0.196c0.392,0,1.175,0,1.175,0.588
	c0,0.196-0.196,0.392-0.196,0.588c-0.784,0.784-0.784,0.784-0.784,1.176c0,0.979-0.195,5.486-0.195,6.466h7.445
	C551.776,394.688,551.58,406.053,550.012,413.891 M522.188,395.864h-2.939v1.959h2.939V395.864z M522.188,400.566h-2.939v1.96h2.939
	V400.566z M529.83,395.864h-2.939v1.959h2.939V395.864z M529.83,400.566h-2.939v1.96h2.939V400.566z"/>
<path fill="#FFFFFF" d="M613.302,410.364c-0.588-0.196-1.176-0.392-1.764-0.588v10.581h-5.095v-0.98h-4.115v0.98h-5.29v-14.108h7.25
	c-2.744-1.764-4.703-3.135-6.662-5.683h-4.507c-2.352,2.743-3.723,3.919-5.683,5.683h6.662v14.108h-4.507v-1.176h-5.094v1.176
	h-5.094v-9.601c-0.784,0.392-1.372,0.588-1.96,0.784l-3.135-4.115c3.723-0.979,7.642-2.743,11.952-6.858h-9.797v-4.311h13.128
	c0.98-1.567,1.372-2.547,1.568-3.135h-11.953v-10.973h14.5v10.385l3.919,0.783c0.195,0,0.979,0.196,0.979,0.588
	c0,0.588-1.372,0.98-1.567,0.98c-0.196,0.392-0.393,0.588-0.784,1.372h18.223v4.115h-9.601c2.155,1.959,5.094,4.115,10.973,4.899
	L613.302,410.364z M588.809,385.871h-4.507v3.919h4.507V385.871z M589.593,409.972h-5.094v5.291h5.094V409.972z M597.43,382.148
	h13.912v10.973H597.43V382.148z M606.052,385.871h-3.92v3.919h3.92V385.871z M606.444,409.972h-4.115v5.291h4.115V409.972z"/>
<path fill="#FFFFFF" d="M675.807,420.161c-3.331,0-6.466,0.196-9.797,0.196c-7.25,0-10.188-1.568-13.128-4.115
	c-1.568,2.352-2.939,3.723-4.311,4.898l-3.527-2.547v2.351h-4.898v-20.77c-0.393,0.588-0.588,0.979-1.176,1.372l-4.507-2.743
	c5.29-7.838,7.25-14.5,8.034-18.223l4.898,1.567c0,0,0.979,0.392,0.979,0.98c0,0.392-0.196,0.588-0.392,0.588
	c-0.98,0.392-0.98,0.392-1.176,1.175c-0.588,1.764-0.98,2.743-1.96,5.291c1.176,0.588,1.372,0.588,1.372,1.176
	c0,0.196,0,0.392-0.588,0.784c-0.393,0.392-0.588,0.588-0.588,0.98v24.493c1.959-1.372,3.331-2.743,4.898-5.094
	c-1.764-2.548-2.743-5.487-3.723-8.426l3.919-1.176c0.196,0.979,0.588,1.959,1.763,5.291c0.98-3.919,1.176-6.466,1.372-8.23h-2.352
	c-0.783,1.372-0.783,1.568-1.371,2.352l-3.919-2.155c2.155-3.723,3.331-5.683,5.29-10.581h-3.331v-4.703h8.23l1.371,1.176
	c-1.176,2.743-2.155,5.291-4.115,9.405h4.311v-0.784h5.683v-1.959h-6.661v-3.331h6.661v-1.959h-5.095v-3.527h5.095v-2.547h3.527
	c2.352,0,2.352,0.392,2.352,0.588c0,0.196-0.392,0.588-0.588,0.588c-0.588,0.392-0.588,0.588-0.588,1.176h7.054v5.486h1.567v3.331
	h-1.567v5.878h-7.054v2.155h6.074v3.723h-6.074v2.156h8.033v3.723h-8.033v4.898h-4.703v-4.898h-6.466v-3.331
	c-0.392,1.764-0.783,3.331-1.764,5.878c2.547,2.548,4.703,3.527,8.817,3.527c4.703,0,9.602-0.392,14.304-0.979L675.807,420.161z
	 M663.072,404.29h-4.703v-3.723h4.703v-2.155h-5.291c-0.196,4.115-0.588,6.271-0.979,7.838h6.466v-1.959H663.072z M670.125,387.438
	h-2.351v1.959h2.351V387.438z M670.125,392.729h-2.351v1.959h2.351V392.729z"/>
<path fill="#FFFFFF" d="M736.746,396.452c-4.702-3.136-7.642-6.271-9.797-9.209c-1.764,2.351-4.703,6.466-8.621,9.601l-3.136-2.352
	v3.135h-13.128v-3.527h11.756c1.176-0.784,1.764-1.372,2.548-1.959h-16.263v-3.919h17.438v2.939
	c2.938-2.743,5.683-6.074,7.25-10.188l4.898,0.979c0.196,0,1.176,0.196,1.176,0.784s-0.392,0.588-0.784,0.784
	c1.372,2.743,5.095,6.074,10.385,9.014L736.746,396.452z M711.861,420.357v-1.372h-5.682v1.764h-4.312v-14.892h14.304v14.5H711.861
	L711.861,420.357z M702.26,399.783h13.324v3.723H702.26V399.783z M702.652,382.148h12.54v3.723h-12.54V382.148z M711.861,409.776
	h-5.486v4.899h5.486V409.776z M738.901,409.188c-0.783,0-0.979,0-1.567,0.783c-5.095,4.703-10.973,8.426-17.439,10.973l-3.526-4.311
	c8.622-2.743,14.304-6.27,19.595-11.952l2.938,2.547c0.196,0.196,0.979,0.98,0.979,1.372
	C739.881,409.188,739.293,409.188,738.901,409.188 M731.064,396.647c-0.784,0-0.784,0-1.176,0.196
	c-3.724,3.527-5.291,4.898-9.21,7.25l-3.331-3.331c5.095-2.743,8.229-5.878,10.385-8.426l2.939,2.547c0,0,0.784,0.588,0.784,1.176
	C731.651,396.452,731.26,396.647,731.064,396.647 M734.591,402.722c-0.392,0-0.588,0.196-0.784,0.196
	c-3.33,3.135-6.662,6.074-12.54,9.209l-3.331-3.526c7.25-3.331,11.169-6.858,13.912-10.189l2.939,2.547c0,0,0.979,0.784,0.979,1.372
	C735.766,402.722,735.178,402.722,734.591,402.722"/>
<path fill="#FFFFFF" d="M485.743,419.769h-19.986c-8.621,0-9.993-2.351-11.169-4.506c-1.567,1.763-3.331,3.331-4.898,4.506
	c-0.196,0.588-0.392,1.176-0.588,1.176c-0.196,0-0.392-0.196-0.588-0.588l-2.351-4.703c1.959-0.784,4.115-1.959,5.682-3.135v-9.405
	h-4.702v-4.507h9.797v12.932c0,1.567,1.176,2.547,1.567,2.743c2.352,1.372,5.683,1.372,9.405,1.372
	c6.271,0,13.521-0.196,19.791-0.979L485.743,419.769z M452.041,392.141c-1.567-2.155-3.135-3.919-5.095-5.682l3.723-3.331
	c1.175,0.784,3.135,2.155,5.486,5.682L452.041,392.141z M474.378,411.932v2.939h-4.703v-2.939h-10.973v-3.723h10.973v-1.763h-9.405
	v-12.736h9.405v-1.764h-6.27v-3.331h6.27v-1.959h-7.838v4.703h-4.311v-8.034h28.216v7.837h-4.507v-4.506h-6.858v1.959h5.486v3.331
	h-5.486v1.764h9.405v12.736h-9.405v1.763h11.561v3.723H474.378z M469.676,396.647h-5.095v2.156h5.095V396.647z M469.676,401.546
	h-5.095v2.155h5.095V401.546z M479.472,396.647h-5.094v2.156h5.094V396.647z M479.472,401.546h-5.094v2.155h5.094V401.546z"/>
<path fill="#FFFFFF" d="M485.743,419.769h-19.986c-8.621,0-9.993-2.351-11.169-4.506c-1.567,1.763-3.331,3.331-4.898,4.506
	c-0.196,0.588-0.392,1.176-0.588,1.176c-0.196,0-0.392-0.196-0.588-0.588l-2.351-4.703c1.959-0.784,4.115-1.959,5.682-3.135v-9.405
	h-4.702v-4.507h9.797v12.932c0,1.567,1.176,2.547,1.567,2.743c2.352,1.372,5.683,1.372,9.405,1.372
	c6.271,0,13.521-0.196,19.791-0.979L485.743,419.769z M452.041,392.141c-1.567-2.155-3.135-3.919-5.095-5.682l3.723-3.331
	c1.175,0.784,3.135,2.155,5.486,5.682L452.041,392.141z M474.378,411.932v2.939h-4.703v-2.939h-10.973v-3.723h10.973v-1.763h-9.405
	v-12.736h9.405v-1.764h-6.27v-3.331h6.27v-1.959h-7.838v4.703h-4.311v-8.034h28.216v7.837h-4.507v-4.506h-6.858v1.959h5.486v3.331
	h-5.486v1.764h9.405v12.736h-9.405v1.763h11.561v3.723H474.378z M469.676,396.647h-5.095v2.156h5.095V396.647z M469.676,401.546
	h-5.095v2.155h5.095V401.546z M479.472,396.647h-5.094v2.156h5.094V396.647z M479.472,401.546h-5.094v2.155h5.094V401.546z"/>
<path fill="#FFFFFF" d="M510.236,438.972c0-3.527,2.939-6.271,6.27-6.271c3.527,0,6.271,2.743,6.271,6.271
	c0,3.526-2.939,6.271-6.271,6.271C513.175,445.242,510.236,442.498,510.236,438.972"/>
<path fill="#FFFFFF" d="M541.783,439.168c0-3.527,2.938-6.271,6.27-6.271c3.527,0,6.271,2.938,6.271,6.271
	c0,3.526-2.939,6.27-6.271,6.27C544.721,445.634,541.783,442.694,541.783,439.168"/>
<path fill="#FFFFFF" d="M573.33,443.282c0-3.526,2.938-6.271,6.27-6.271c3.527,0,6.271,2.744,6.271,6.271
	c0,3.527-2.939,6.271-6.271,6.271C576.268,449.748,573.33,446.81,573.33,443.282"/>
<path fill="#FFFFFF" d="M447.142,450.141c0-3.527,2.939-6.271,6.27-6.271c3.527,0,6.27,2.939,6.27,6.271
	c0,3.526-2.939,6.27-6.27,6.27S447.142,453.667,447.142,450.141"/>
<path fill="#FFFFFF" d="M478.689,441.715c0-3.527,2.939-6.271,6.27-6.271c3.527,0,6.27,2.743,6.27,6.271s-2.939,6.27-6.27,6.27
	C481.628,448.181,478.689,445.242,478.689,441.715"/>
<path fill="#FFFFFF" d="M604.877,449.748c0-3.526,2.938-6.27,6.27-6.27c3.527,0,6.271,2.938,6.271,6.27
	c0,3.527-2.939,6.271-6.271,6.271S604.877,453.275,604.877,449.748"/>
<path fill="#FFFFFF" d="M636.424,453.275c0-3.527,2.938-6.271,6.27-6.271c3.527,0,6.271,2.939,6.271,6.271
	c0,3.527-2.939,6.27-6.271,6.27S636.424,456.803,636.424,453.275"/>
<path fill="#FFFFFF" d="M667.97,454.255c0-3.526,2.938-6.271,6.27-6.271c3.527,0,6.271,2.939,6.271,6.271
	c0,3.527-2.939,6.271-6.271,6.271S667.97,457.782,667.97,454.255"/>
<path fill="#FFFFFF" d="M699.517,448.769c0-3.526,2.938-6.271,6.27-6.271c3.527,0,6.271,2.939,6.271,6.271
	c0,3.527-2.939,6.271-6.271,6.271S699.517,452.296,699.517,448.769"/>
<path fill="#FFFFFF" d="M731.064,442.498c0-3.526,2.938-6.27,6.27-6.27c3.527,0,6.271,2.939,6.271,6.27
	c0,3.527-2.939,6.271-6.271,6.271S731.064,445.83,731.064,442.498"/>
<path fill="#FFFFFF" d="M550.012,413.891c-1.176,5.683-2.743,6.858-7.838,6.858l-2.352-4.703c0.588,0,1.372,0.196,2.155,0.196
	c1.96,0,2.743-0.979,3.135-2.352c0.588-2.547,1.568-10.385,1.764-18.418h-2.743c-0.784,9.013-2.547,16.655-9.209,25.081
	l-4.507-2.547c0.588-0.588,1.176-0.98,2.352-2.548c-2.155,0.196-12.933,1.568-15.479,1.764c-0.979,0.196-1.176,0-1.372,0.588
	c-0.392,0.588-0.588,0.588-0.98,0.588c-0.392,0-0.588-0.196-0.588-0.784l-0.588-4.115c2.743,0,7.054-0.392,8.622-0.588v-2.352
	h-7.446v-3.331h7.446v-1.959h-7.054v-11.953h7.054v-1.959h-9.014v-3.527h9.014v-1.959c-0.98,0-2.548,0.196-5.683,0.196l-1.567-3.527
	c5.486,0.196,10.973,0,16.263-1.372l2.351,2.939c0.196,0.196,0.392,0.392,0.392,0.588c0,0.196-0.196,0.392-0.588,0.392
	c-0.196,0-1.175-0.392-1.567-0.392c-0.196,0-1.568,0.196-1.959,0.392c0,0-1.959,0.196-2.939,0.392v2.351h9.014v3.527h-9.014v1.959
	h7.054v11.953h-7.054v1.959h7.25v3.331h-7.25v2.155c4.311-0.392,4.898-0.392,7.446-0.588v1.372c0.783-1.176,1.959-3.135,3.135-6.858
	c1.372-4.702,1.959-8.817,2.155-11.168h-3.527v-4.703h3.331c0-4.898,0-5.095,0-9.209l4.899,0.196c0.392,0,1.175,0,1.175,0.588
	c0,0.196-0.196,0.392-0.196,0.588c-0.784,0.784-0.784,0.784-0.784,1.176c0,0.979-0.195,5.486-0.195,6.466h7.445
	C551.776,394.688,551.58,406.053,550.012,413.891 M522.188,395.864h-2.939v1.959h2.939V395.864z M522.188,400.566h-2.939v1.96h2.939
	V400.566z M529.83,395.864h-2.939v1.959h2.939V395.864z M529.83,400.566h-2.939v1.96h2.939V400.566z"/>
<path fill="#FFFFFF" d="M613.302,410.364c-0.588-0.196-1.176-0.392-1.764-0.588v10.581h-5.095v-0.98h-4.115v0.98h-5.29v-14.108h7.25
	c-2.744-1.764-4.703-3.135-6.662-5.683h-4.507c-2.352,2.743-3.723,3.919-5.683,5.683h6.662v14.108h-4.507v-1.176h-5.094v1.176
	h-5.094v-9.601c-0.784,0.392-1.372,0.588-1.96,0.784l-3.135-4.115c3.723-0.979,7.642-2.743,11.952-6.858h-9.797v-4.311h13.128
	c0.98-1.567,1.372-2.547,1.568-3.135h-11.953v-10.973h14.5v10.385l3.919,0.783c0.195,0,0.979,0.196,0.979,0.588
	c0,0.588-1.372,0.98-1.567,0.98c-0.196,0.392-0.393,0.588-0.784,1.372h18.223v4.115h-9.601c2.155,1.959,5.094,4.115,10.973,4.899
	L613.302,410.364z M588.809,385.871h-4.507v3.919h4.507V385.871z M589.593,409.972h-5.094v5.291h5.094V409.972z M597.43,382.148
	h13.912v10.973H597.43V382.148z M606.052,385.871h-3.92v3.919h3.92V385.871z M606.444,409.972h-4.115v5.291h4.115V409.972z"/>
<path fill="#FFFFFF" d="M675.807,420.161c-3.331,0-6.466,0.196-9.797,0.196c-7.25,0-10.188-1.568-13.128-4.115
	c-1.568,2.352-2.939,3.723-4.311,4.898l-3.527-2.547v2.351h-4.898v-20.77c-0.393,0.588-0.588,0.979-1.176,1.372l-4.507-2.743
	c5.29-7.838,7.25-14.5,8.034-18.223l4.898,1.567c0,0,0.979,0.392,0.979,0.98c0,0.392-0.196,0.588-0.392,0.588
	c-0.98,0.392-0.98,0.392-1.176,1.175c-0.588,1.764-0.98,2.743-1.96,5.291c1.176,0.588,1.372,0.588,1.372,1.176
	c0,0.196,0,0.392-0.588,0.784c-0.393,0.392-0.588,0.588-0.588,0.98v24.493c1.959-1.372,3.331-2.743,4.898-5.094
	c-1.764-2.548-2.743-5.487-3.723-8.426l3.919-1.176c0.196,0.979,0.588,1.959,1.763,5.291c0.98-3.919,1.176-6.466,1.372-8.23h-2.352
	c-0.783,1.372-0.783,1.568-1.371,2.352l-3.919-2.155c2.155-3.723,3.331-5.683,5.29-10.581h-3.331v-4.703h8.23l1.371,1.176
	c-1.176,2.743-2.155,5.291-4.115,9.405h4.311v-0.784h5.683v-1.959h-6.661v-3.331h6.661v-1.959h-5.095v-3.527h5.095v-2.547h3.527
	c2.352,0,2.352,0.392,2.352,0.588c0,0.196-0.392,0.588-0.588,0.588c-0.588,0.392-0.588,0.588-0.588,1.176h7.054v5.486h1.567v3.331
	h-1.567v5.878h-7.054v2.155h6.074v3.723h-6.074v2.156h8.033v3.723h-8.033v4.898h-4.703v-4.898h-6.466v-3.331
	c-0.392,1.764-0.783,3.331-1.764,5.878c2.547,2.548,4.703,3.527,8.817,3.527c4.703,0,9.602-0.392,14.304-0.979L675.807,420.161z
	 M663.072,404.29h-4.703v-3.723h4.703v-2.155h-5.291c-0.196,4.115-0.588,6.271-0.979,7.838h6.466v-1.959H663.072z M670.125,387.438
	h-2.351v1.959h2.351V387.438z M670.125,392.729h-2.351v1.959h2.351V392.729z"/>
<path fill="#FFFFFF" d="M736.746,396.452c-4.702-3.136-7.642-6.271-9.797-9.209c-1.764,2.351-4.703,6.466-8.621,9.601l-3.136-2.352
	v3.135h-13.128v-3.527h11.756c1.176-0.784,1.764-1.372,2.548-1.959h-16.263v-3.919h17.438v2.939
	c2.938-2.743,5.683-6.074,7.25-10.188l4.898,0.979c0.196,0,1.176,0.196,1.176,0.784s-0.392,0.588-0.784,0.784
	c1.372,2.743,5.095,6.074,10.385,9.014L736.746,396.452z M711.861,420.357v-1.372h-5.682v1.764h-4.312v-14.892h14.304v14.5H711.861
	L711.861,420.357z M702.26,399.783h13.324v3.723H702.26V399.783z M702.652,382.148h12.54v3.723h-12.54V382.148z M711.861,409.776
	h-5.486v4.899h5.486V409.776z M738.901,409.188c-0.783,0-0.979,0-1.567,0.783c-5.095,4.703-10.973,8.426-17.439,10.973l-3.526-4.311
	c8.622-2.743,14.304-6.27,19.595-11.952l2.938,2.547c0.196,0.196,0.979,0.98,0.979,1.372
	C739.881,409.188,739.293,409.188,738.901,409.188 M731.064,396.647c-0.784,0-0.784,0-1.176,0.196
	c-3.724,3.527-5.291,4.898-9.21,7.25l-3.331-3.331c5.095-2.743,8.229-5.878,10.385-8.426l2.939,2.547c0,0,0.784,0.588,0.784,1.176
	C731.651,396.452,731.26,396.647,731.064,396.647 M734.591,402.722c-0.392,0-0.588,0.196-0.784,0.196
	c-3.33,3.135-6.662,6.074-12.54,9.209l-3.331-3.526c7.25-3.331,11.169-6.858,13.912-10.189l2.939,2.547c0,0,0.979,0.784,0.979,1.372
	C735.766,402.722,735.178,402.722,734.591,402.722"/>
<path fill="#FFFFFF" d="M485.743,419.769h-19.986c-8.621,0-9.993-2.351-11.169-4.506c-1.567,1.763-3.331,3.331-4.898,4.506
	c-0.196,0.588-0.392,1.176-0.588,1.176c-0.196,0-0.392-0.196-0.588-0.588l-2.351-4.703c1.959-0.784,4.115-1.959,5.682-3.135v-9.405
	h-4.702v-4.507h9.797v12.932c0,1.567,1.176,2.547,1.567,2.743c2.352,1.372,5.683,1.372,9.405,1.372
	c6.271,0,13.521-0.196,19.791-0.979L485.743,419.769z M452.041,392.141c-1.567-2.155-3.135-3.919-5.095-5.682l3.723-3.331
	c1.175,0.784,3.135,2.155,5.486,5.682L452.041,392.141z M474.378,411.932v2.939h-4.703v-2.939h-10.973v-3.723h10.973v-1.763h-9.405
	v-12.736h9.405v-1.764h-6.27v-3.331h6.27v-1.959h-7.838v4.703h-4.311v-8.034h28.216v7.837h-4.507v-4.506h-6.858v1.959h5.486v3.331
	h-5.486v1.764h9.405v12.736h-9.405v1.763h11.561v3.723H474.378z M469.676,396.647h-5.095v2.156h5.095V396.647z M469.676,401.546
	h-5.095v2.155h5.095V401.546z M479.472,396.647h-5.094v2.156h5.094V396.647z M479.472,401.546h-5.094v2.155h5.094V401.546z"/>
<path fill="#FFFFFF" d="M485.743,419.769h-19.986c-8.621,0-9.993-2.351-11.169-4.506c-1.567,1.763-3.331,3.331-4.898,4.506
	c-0.196,0.588-0.392,1.176-0.588,1.176c-0.196,0-0.392-0.196-0.588-0.588l-2.351-4.703c1.959-0.784,4.115-1.959,5.682-3.135v-9.405
	h-4.702v-4.507h9.797v12.932c0,1.567,1.176,2.547,1.567,2.743c2.352,1.372,5.683,1.372,9.405,1.372
	c6.271,0,13.521-0.196,19.791-0.979L485.743,419.769z M452.041,392.141c-1.567-2.155-3.135-3.919-5.095-5.682l3.723-3.331
	c1.175,0.784,3.135,2.155,5.486,5.682L452.041,392.141z M474.378,411.932v2.939h-4.703v-2.939h-10.973v-3.723h10.973v-1.763h-9.405
	v-12.736h9.405v-1.764h-6.27v-3.331h6.27v-1.959h-7.838v4.703h-4.311v-8.034h28.216v7.837h-4.507v-4.506h-6.858v1.959h5.486v3.331
	h-5.486v1.764h9.405v12.736h-9.405v1.763h11.561v3.723H474.378z M469.676,396.647h-5.095v2.156h5.095V396.647z M469.676,401.546
	h-5.095v2.155h5.095V401.546z M479.472,396.647h-5.094v2.156h5.094V396.647z M479.472,401.546h-5.094v2.155h5.094V401.546z"/>
<path fill="#FFFFFF" d="M485.743,419.769h-19.986c-8.621,0-9.993-2.351-11.169-4.506c-1.567,1.763-3.331,3.331-4.898,4.506
	c-0.196,0.588-0.392,1.176-0.588,1.176c-0.196,0-0.392-0.196-0.588-0.588l-2.351-4.703c1.959-0.784,4.115-1.959,5.682-3.135v-9.405
	h-4.702v-4.507h9.797v12.932c0,1.567,1.176,2.547,1.567,2.743c2.352,1.372,5.683,1.372,9.405,1.372
	c6.271,0,13.521-0.196,19.791-0.979L485.743,419.769z M452.041,392.141c-1.567-2.155-3.135-3.919-5.095-5.682l3.723-3.331
	c1.175,0.784,3.135,2.155,5.486,5.682L452.041,392.141z M474.378,411.932v2.939h-4.703v-2.939h-10.973v-3.723h10.973v-1.763h-9.405
	v-12.736h9.405v-1.764h-6.27v-3.331h6.27v-1.959h-7.838v4.703h-4.311v-8.034h28.216v7.837h-4.507v-4.506h-6.858v1.959h5.486v3.331
	h-5.486v1.764h9.405v12.736h-9.405v1.763h11.561v3.723H474.378z M469.676,396.647h-5.095v2.156h5.095V396.647z M469.676,401.546
	h-5.095v2.155h5.095V401.546z M479.472,396.647h-5.094v2.156h5.094V396.647z M479.472,401.546h-5.094v2.155h5.094V401.546z"/>
<path fill="#FFFFFF" d="M510.236,438.972c0-3.527,2.939-6.271,6.27-6.271c3.527,0,6.271,2.743,6.271,6.271
	c0,3.526-2.939,6.271-6.271,6.271C513.175,445.242,510.236,442.498,510.236,438.972"/>
<path fill="#FFFFFF" d="M541.783,439.168c0-3.527,2.938-6.271,6.27-6.271c3.527,0,6.271,2.938,6.271,6.271
	c0,3.526-2.939,6.27-6.271,6.27C544.721,445.634,541.783,442.694,541.783,439.168"/>
<path fill="#FFFFFF" d="M573.33,443.282c0-3.526,2.938-6.271,6.27-6.271c3.527,0,6.271,2.744,6.271,6.271
	c0,3.527-2.939,6.271-6.271,6.271C576.268,449.748,573.33,446.81,573.33,443.282"/>
<path fill="#FFFFFF" d="M447.142,450.141c0-3.527,2.939-6.271,6.27-6.271c3.527,0,6.27,2.939,6.27,6.271
	c0,3.526-2.939,6.27-6.27,6.27S447.142,453.667,447.142,450.141"/>
<path fill="#FFFFFF" d="M478.689,441.715c0-3.527,2.939-6.271,6.27-6.271c3.527,0,6.27,2.743,6.27,6.271s-2.939,6.27-6.27,6.27
	C481.628,448.181,478.689,445.242,478.689,441.715"/>
<path fill="#FFFFFF" d="M604.877,449.748c0-3.526,2.938-6.27,6.27-6.27c3.527,0,6.271,2.938,6.271,6.27
	c0,3.527-2.939,6.271-6.271,6.271S604.877,453.275,604.877,449.748"/>
<path fill="#FFFFFF" d="M636.424,453.275c0-3.527,2.938-6.271,6.27-6.271c3.527,0,6.271,2.939,6.271,6.271
	c0,3.527-2.939,6.27-6.271,6.27S636.424,456.803,636.424,453.275"/>
<path fill="#FFFFFF" d="M667.97,454.255c0-3.526,2.938-6.271,6.27-6.271c3.527,0,6.271,2.939,6.271,6.271
	c0,3.527-2.939,6.271-6.271,6.271S667.97,457.782,667.97,454.255"/>
<path fill="#FFFFFF" d="M699.517,448.769c0-3.526,2.938-6.271,6.27-6.271c3.527,0,6.271,2.939,6.271,6.271
	c0,3.527-2.939,6.271-6.271,6.271S699.517,452.296,699.517,448.769"/>
<path fill="#FFFFFF" d="M731.064,442.498c0-3.526,2.938-6.27,6.27-6.27c3.527,0,6.271,2.939,6.271,6.27
	c0,3.527-2.939,6.271-6.271,6.271S731.064,445.83,731.064,442.498"/>
</svg>
