<svg version="1.1" id="logo_gray" xmlns="http://www.w3.org/2000/svg" xmlns:xlink="http://www.w3.org/1999/xlink" x="0px"
	 y="0px" viewBox="0 0 151.9 40.7" style="enable-background:new 0 0 151.9 40.7;" xml:space="preserve">
<style type="text/css">
	.st0{fill:#4D4D4D;}
</style>
<g>
	<path class="st0" d="M53,16.9c-0.6,2.9-1.4,3.5-4,3.5L47.8,18c0.3,0,0.7,0.1,1.1,0.1c1,0,1.4-0.5,1.6-1.2c0.3-1.3,0.8-5.3,0.9-9.4
		H50c-0.4,4.6-1.3,8.5-4.7,12.8L43,19c0.3-0.3,0.6-0.5,1.2-1.3c-1.1,0.1-6.6,0.8-7.9,0.9c-0.5,0.1-0.6,0-0.7,0.3
		c-0.2,0.3-0.3,0.3-0.5,0.3c-0.2,0-0.3-0.1-0.3-0.4l-0.3-2.1c1.4,0,3.6-0.2,4.4-0.3v-1.2h-3.8v-1.7h3.8v-1h-3.6V6.4h3.6v-1h-4.6V3.6
		h4.6v-1c-0.5,0-1.3,0.1-2.9,0.1l-0.8-1.8c2.8,0.1,5.6,0,8.3-0.7l1.2,1.5c0.1,0.1,0.2,0.2,0.2,0.3c0,0.1-0.1,0.2-0.3,0.2
		c-0.1,0-0.6-0.2-0.8-0.2c-0.1,0-0.8,0.1-1,0.2c0,0-1,0.1-1.5,0.2v1.2h4.6v1.8h-4.6v1h3.6v6.1h-3.6v1H45v1.7h-3.7v1.1
		c2.2-0.2,2.5-0.2,3.8-0.3v0.7c0.4-0.6,1-1.6,1.6-3.5c0.7-2.4,1-4.5,1.1-5.7H46V5.1h1.7c0-2.5,0-2.6,0-4.7l2.5,0.1
		c0.2,0,0.6,0,0.6,0.3c0,0.1-0.1,0.2-0.1,0.3c-0.4,0.3-0.4,0.4-0.4,0.6c0,0.5-0.1,2.8-0.1,3.3h3.8C53.9,7.1,53.8,12.9,53,16.9
		 M38.8,7.7h-1.5v1h1.5V7.7z M38.8,10.1h-1.5v1h1.5V10.1z M42.7,7.7h-1.5v1h1.5V7.7z M42.7,10.1h-1.5v1h1.5V10.1z"/>
	<path class="st0" d="M85.3,15.1c-0.3-0.1-0.6-0.2-0.9-0.3v5.4h-2.6v-0.5h-2.1v0.5H77V13h3.7c-1.4-0.9-2.4-1.6-3.4-2.9H75
		c-1.2,1.4-1.9,2-2.9,2.9h3.4v7.2h-2.3v-0.6h-2.6v0.6h-2.6v-4.9c-0.4,0.2-0.7,0.3-1,0.4l-1.6-2.1c1.9-0.5,3.9-1.4,6.1-3.5h-5V7.9
		h6.7c0.5-0.8,0.7-1.3,0.8-1.6h-6.1V0.7h7.4V6l2,0.4c0.1,0,0.5,0.1,0.5,0.3c0,0.3-0.7,0.5-0.8,0.5c-0.1,0.2-0.2,0.3-0.4,0.7h9.3v2.1
		H81c1.1,1,2.6,2.1,5.6,2.5L85.3,15.1z M72.8,2.6h-2.3v2h2.3V2.6z M73.2,14.9h-2.6v2.7h2.6V14.9z M77.2,0.7h7.1v5.6h-7.1V0.7z
		 M81.6,2.6h-2v2h2V2.6z M81.8,14.9h-2.1v2.7h2.1V14.9z"/>
	<path class="st0" d="M117.2,20.1c-1.7,0-3.3,0.1-5,0.1c-3.7,0-5.2-0.8-6.7-2.1c-0.8,1.2-1.5,1.9-2.2,2.5l-1.8-1.3v1.2H99V9.9
		c-0.2,0.3-0.3,0.5-0.6,0.7l-2.3-1.3c2.7-4,3.7-7.4,4.1-9.3l2.5,0.8c0,0,0.5,0.2,0.5,0.5c0,0.2-0.1,0.3-0.2,0.3
		c-0.5,0.2-0.5,0.2-0.6,0.6c-0.3,0.9-0.5,1.4-1,2.7c0.6,0.3,0.7,0.3,0.7,0.6c0,0.1,0,0.2-0.3,0.4c-0.2,0.2-0.3,0.3-0.3,0.5v12.5
		c1-0.7,1.7-1.4,2.5-2.6c-0.9-1.3-1.4-2.8-1.9-4.3l2-0.6c0.1,0.5,0.3,1,0.9,2.7c0.5-2,0.6-3.3,0.7-4.2h-1.2
		c-0.4,0.7-0.4,0.8-0.7,1.2l-2-1.1c1.1-1.9,1.7-2.9,2.7-5.4h-1.7V2.1h4.2l0.7,0.6c-0.6,1.4-1.1,2.7-2.1,4.8h2.2V7.1h2.9v-1h-3.4V4.4
		h3.4v-1h-2.6V1.6h2.6V0.3l1.8,0c1.2,0,1.2,0.2,1.2,0.3c0,0.1-0.2,0.3-0.3,0.3c-0.3,0.2-0.3,0.3-0.3,0.6h3.6v2.8h0.8v1.7h-0.8V9
		h-3.6v1.1h3.1V12h-3.1v1.1h4.1V15h-4.1v2.5h-2.4V15h-3.3v-1.7c-0.2,0.9-0.4,1.7-0.9,3c1.3,1.3,2.3,1.8,4.5,1.8
		c2.4,0,4.9-0.2,7.3-0.5L117.2,20.1z M110.7,12h-2.4v-1.9h2.4V9H108c-0.1,2.1-0.3,3.2-0.5,4h3.3V12z M114.3,3.4h-1.2v1h1.2V3.4z
		 M114.3,6.1h-1.2v1h1.2V6.1z"/>
	<path class="st0" d="M148.3,8c-2.4-1.6-3.9-3.2-5-4.7c-0.9,1.2-2.4,3.3-4.4,4.9l-1.6-1.2v1.6h-6.7V6.8h6c0.6-0.4,0.9-0.7,1.3-1
		h-8.3v-2h8.9v1.5c1.5-1.4,2.9-3.1,3.7-5.2l2.5,0.5c0.1,0,0.6,0.1,0.6,0.4c0,0.3-0.2,0.3-0.4,0.4c0.7,1.4,2.6,3.1,5.3,4.6L148.3,8z
		 M135.6,20.2v-0.7h-2.9v0.9h-2.2v-7.6h7.3v7.4H135.6z M130.7,9.7h6.8v1.9h-6.8V9.7z M130.9,0.7h6.4v1.9h-6.4V0.7z M135.6,14.8h-2.8
		v2.5h2.8V14.8z M149.4,14.5c-0.4,0-0.5,0-0.8,0.4c-2.6,2.4-5.6,4.3-8.9,5.6l-1.8-2.2c4.4-1.4,7.3-3.2,10-6.1l1.5,1.3
		c0.1,0.1,0.5,0.5,0.5,0.7C149.8,14.5,149.6,14.5,149.4,14.5 M145.4,8.1c-0.4,0-0.4,0-0.6,0.1c-1.9,1.8-2.7,2.5-4.7,3.7l-1.7-1.7
		c2.6-1.4,4.2-3,5.3-4.3l1.5,1.3c0,0,0.4,0.3,0.4,0.6C145.7,8,145.5,8.1,145.4,8.1 M147.2,11.2c-0.2,0-0.3,0.1-0.4,0.1
		c-1.7,1.6-3.4,3.1-6.4,4.7l-1.7-1.8c3.7-1.7,5.7-3.5,7.1-5.2l1.5,1.3c0,0,0.5,0.4,0.5,0.7C147.8,11.2,147.5,11.2,147.2,11.2"/>
	<path class="st0" d="M20.2,19.9H10c-4.4,0-5.1-1.2-5.7-2.3c-0.8,0.9-1.7,1.7-2.5,2.3c-0.1,0.3-0.2,0.6-0.3,0.6
		c-0.1,0-0.2-0.1-0.3-0.3L0,17.8c1-0.4,2.1-1,2.9-1.6v-4.8H0.5V9.1h5v6.6c0,0.8,0.6,1.3,0.8,1.4c1.2,0.7,2.9,0.7,4.8,0.7
		c3.2,0,6.9-0.1,10.1-0.5L20.2,19.9z M3,5.8c-0.8-1.1-1.6-2-2.6-2.9l1.9-1.7c0.6,0.4,1.6,1.1,2.8,2.9L3,5.8z M14.4,15.9v1.5H12v-1.5
		H6.4V14H12v-0.9H7.2V6.6H12V5.7H8.8V4H12V3H8v2.4H5.8V1.3h14.4v4h-2.3V3h-3.5V4h2.8v1.7h-2.8v0.9h4.8v6.5h-4.8V14h5.9v1.9H14.4z
		 M12,8.1H9.4v1.1H12V8.1z M12,10.6H9.4v1.1H12V10.6z M17,8.1h-2.6v1.1H17V8.1z M17,10.6h-2.6v1.1H17V10.6z"/>
	<path class="st0" d="M20.2,19.9H10c-4.4,0-5.1-1.2-5.7-2.3c-0.8,0.9-1.7,1.7-2.5,2.3c-0.1,0.3-0.2,0.6-0.3,0.6
		c-0.1,0-0.2-0.1-0.3-0.3L0,17.8c1-0.4,2.1-1,2.9-1.6v-4.8H0.5V9.1h5v6.6c0,0.8,0.6,1.3,0.8,1.4c1.2,0.7,2.9,0.7,4.8,0.7
		c3.2,0,6.9-0.1,10.1-0.5L20.2,19.9z M3,5.8c-0.8-1.1-1.6-2-2.6-2.9l1.9-1.7c0.6,0.4,1.6,1.1,2.8,2.9L3,5.8z M14.4,15.9v1.5H12v-1.5
		H6.4V14H12v-0.9H7.2V6.6H12V5.7H8.8V4H12V3H8v2.4H5.8V1.3h14.4v4h-2.3V3h-3.5V4h2.8v1.7h-2.8v0.9h4.8v6.5h-4.8V14h5.9v1.9H14.4z
		 M12,8.1H9.4v1.1H12V8.1z M12,10.6H9.4v1.1H12V10.6z M17,8.1h-2.6v1.1H17V8.1z M17,10.6h-2.6v1.1H17V10.6z"/>
	<path class="st0" d="M32.7,29.7c0-1.8,1.5-3.2,3.2-3.2c1.8,0,3.2,1.5,3.2,3.2c0,1.8-1.5,3.2-3.2,3.2C34.2,32.9,32.7,31.5,32.7,29.7
		"/>
	<path class="st0" d="M48.8,29.8c0-1.8,1.5-3.2,3.2-3.2c1.8,0,3.2,1.5,3.2,3.2c0,1.8-1.5,3.2-3.2,3.2C50.3,33.1,48.8,31.6,48.8,29.8
		"/>
	<path class="st0" d="M64.9,31.9c0-1.8,1.5-3.2,3.2-3.2c1.8,0,3.2,1.4,3.2,3.2c0,1.8-1.5,3.2-3.2,3.2C66.4,35.2,64.9,33.7,64.9,31.9
		"/>
	<path class="st0" d="M0.5,35.4c0-1.8,1.5-3.2,3.2-3.2c1.8,0,3.2,1.5,3.2,3.2c0,1.8-1.5,3.2-3.2,3.2C2,38.6,0.5,37.2,0.5,35.4"/>
	<path class="st0" d="M16.6,31.1c0-1.8,1.5-3.2,3.2-3.2c1.8,0,3.2,1.5,3.2,3.2c0,1.8-1.5,3.2-3.2,3.2C18.1,34.4,16.6,32.9,16.6,31.1
		"/>
	<path class="st0" d="M81,35.2c0-1.8,1.5-3.2,3.2-3.2c1.8,0,3.2,1.5,3.2,3.2c0,1.8-1.5,3.2-3.2,3.2C82.5,38.4,81,37,81,35.2"/>
	<path class="st0" d="M97.1,37c0-1.8,1.5-3.2,3.2-3.2c1.8,0,3.2,1.5,3.2,3.2c0,1.8-1.5,3.2-3.2,3.2C98.6,40.2,97.1,38.8,97.1,37"/>
	<path class="st0" d="M113.2,37.5c0-1.8,1.5-3.2,3.2-3.2c1.8,0,3.2,1.4,3.2,3.2s-1.5,3.2-3.2,3.2C114.7,40.7,113.2,39.3,113.2,37.5"
		/>
	<path class="st0" d="M129.3,34.7c0-1.8,1.5-3.2,3.2-3.2c1.8,0,3.2,1.5,3.2,3.2c0,1.8-1.5,3.2-3.2,3.2
		C130.8,37.9,129.3,36.5,129.3,34.7"/>
	<path class="st0" d="M145.4,31.5c0-1.8,1.5-3.2,3.2-3.2c1.8,0,3.2,1.4,3.2,3.2c0,1.8-1.5,3.2-3.2,3.2
		C146.9,34.7,145.4,33.2,145.4,31.5"/>
	<path class="st0" d="M53,16.9c-0.6,2.9-1.4,3.5-4,3.5L47.8,18c0.3,0,0.7,0.1,1.1,0.1c1,0,1.4-0.5,1.6-1.2c0.3-1.3,0.8-5.3,0.9-9.4
		H50c-0.4,4.6-1.3,8.5-4.7,12.8L43,19c0.3-0.3,0.6-0.5,1.2-1.3c-1.1,0.1-6.6,0.8-7.9,0.9c-0.5,0.1-0.6,0-0.7,0.3
		c-0.2,0.3-0.3,0.3-0.5,0.3c-0.2,0-0.3-0.1-0.3-0.4l-0.3-2.1c1.4,0,3.6-0.2,4.4-0.3v-1.2h-3.8v-1.7h3.8v-1h-3.6V6.4h3.6v-1h-4.6V3.6
		h4.6v-1c-0.5,0-1.3,0.1-2.9,0.1l-0.8-1.8c2.8,0.1,5.6,0,8.3-0.7l1.2,1.5c0.1,0.1,0.2,0.2,0.2,0.3c0,0.1-0.1,0.2-0.3,0.2
		c-0.1,0-0.6-0.2-0.8-0.2c-0.1,0-0.8,0.1-1,0.2c0,0-1,0.1-1.5,0.2v1.2h4.6v1.8h-4.6v1h3.6v6.1h-3.6v1H45v1.7h-3.7v1.1
		c2.2-0.2,2.5-0.2,3.8-0.3v0.7c0.4-0.6,1-1.6,1.6-3.5c0.7-2.4,1-4.5,1.1-5.7H46V5.1h1.7c0-2.5,0-2.6,0-4.7l2.5,0.1
		c0.2,0,0.6,0,0.6,0.3c0,0.1-0.1,0.2-0.1,0.3c-0.4,0.3-0.4,0.4-0.4,0.6c0,0.5-0.1,2.8-0.1,3.3h3.8C53.9,7.1,53.8,12.9,53,16.9
		 M38.8,7.7h-1.5v1h1.5V7.7z M38.8,10.1h-1.5v1h1.5V10.1z M42.7,7.7h-1.5v1h1.5V7.7z M42.7,10.1h-1.5v1h1.5V10.1z"/>
	<path class="st0" d="M85.3,15.1c-0.3-0.1-0.6-0.2-0.9-0.3v5.4h-2.6v-0.5h-2.1v0.5H77V13h3.7c-1.4-0.9-2.4-1.6-3.4-2.9H75
		c-1.2,1.4-1.9,2-2.9,2.9h3.4v7.2h-2.3v-0.6h-2.6v0.6h-2.6v-4.9c-0.4,0.2-0.7,0.3-1,0.4l-1.6-2.1c1.9-0.5,3.9-1.4,6.1-3.5h-5V7.9
		h6.7c0.5-0.8,0.7-1.3,0.8-1.6h-6.1V0.7h7.4V6l2,0.4c0.1,0,0.5,0.1,0.5,0.3c0,0.3-0.7,0.5-0.8,0.5c-0.1,0.2-0.2,0.3-0.4,0.7h9.3v2.1
		H81c1.1,1,2.6,2.1,5.6,2.5L85.3,15.1z M72.8,2.6h-2.3v2h2.3V2.6z M73.2,14.9h-2.6v2.7h2.6V14.9z M77.2,0.7h7.1v5.6h-7.1V0.7z
		 M81.6,2.6h-2v2h2V2.6z M81.8,14.9h-2.1v2.7h2.1V14.9z"/>
	<path class="st0" d="M117.2,20.1c-1.7,0-3.3,0.1-5,0.1c-3.7,0-5.2-0.8-6.7-2.1c-0.8,1.2-1.5,1.9-2.2,2.5l-1.8-1.3v1.2H99V9.9
		c-0.2,0.3-0.3,0.5-0.6,0.7l-2.3-1.3c2.7-4,3.7-7.4,4.1-9.3l2.5,0.8c0,0,0.5,0.2,0.5,0.5c0,0.2-0.1,0.3-0.2,0.3
		c-0.5,0.2-0.5,0.2-0.6,0.6c-0.3,0.9-0.5,1.4-1,2.7c0.6,0.3,0.7,0.3,0.7,0.6c0,0.1,0,0.2-0.3,0.4c-0.2,0.2-0.3,0.3-0.3,0.5v12.5
		c1-0.7,1.7-1.4,2.5-2.6c-0.9-1.3-1.4-2.8-1.9-4.3l2-0.6c0.1,0.5,0.3,1,0.9,2.7c0.5-2,0.6-3.3,0.7-4.2h-1.2
		c-0.4,0.7-0.4,0.8-0.7,1.2l-2-1.1c1.1-1.9,1.7-2.9,2.7-5.4h-1.7V2.1h4.2l0.7,0.6c-0.6,1.4-1.1,2.7-2.1,4.8h2.2V7.1h2.9v-1h-3.4V4.4
		h3.4v-1h-2.6V1.6h2.6V0.3l1.8,0c1.2,0,1.2,0.2,1.2,0.3c0,0.1-0.2,0.3-0.3,0.3c-0.3,0.2-0.3,0.3-0.3,0.6h3.6v2.8h0.8v1.7h-0.8V9
		h-3.6v1.1h3.1V12h-3.1v1.1h4.1V15h-4.1v2.5h-2.4V15h-3.3v-1.7c-0.2,0.9-0.4,1.7-0.9,3c1.3,1.3,2.3,1.8,4.5,1.8
		c2.4,0,4.9-0.2,7.3-0.5L117.2,20.1z M110.7,12h-2.4v-1.9h2.4V9H108c-0.1,2.1-0.3,3.2-0.5,4h3.3V12z M114.3,3.4h-1.2v1h1.2V3.4z
		 M114.3,6.1h-1.2v1h1.2V6.1z"/>
	<path class="st0" d="M148.3,8c-2.4-1.6-3.9-3.2-5-4.7c-0.9,1.2-2.4,3.3-4.4,4.9l-1.6-1.2v1.6h-6.7V6.8h6c0.6-0.4,0.9-0.7,1.3-1
		h-8.3v-2h8.9v1.5c1.5-1.4,2.9-3.1,3.7-5.2l2.5,0.5c0.1,0,0.6,0.1,0.6,0.4c0,0.3-0.2,0.3-0.4,0.4c0.7,1.4,2.6,3.1,5.3,4.6L148.3,8z
		 M135.6,20.2v-0.7h-2.9v0.9h-2.2v-7.6h7.3v7.4H135.6z M130.7,9.7h6.8v1.9h-6.8V9.7z M130.9,0.7h6.4v1.9h-6.4V0.7z M135.6,14.8h-2.8
		v2.5h2.8V14.8z M149.4,14.5c-0.4,0-0.5,0-0.8,0.4c-2.6,2.4-5.6,4.3-8.9,5.6l-1.8-2.2c4.4-1.4,7.3-3.2,10-6.1l1.5,1.3
		c0.1,0.1,0.5,0.5,0.5,0.7C149.8,14.5,149.6,14.5,149.4,14.5 M145.4,8.1c-0.4,0-0.4,0-0.6,0.1c-1.9,1.8-2.7,2.5-4.7,3.7l-1.7-1.7
		c2.6-1.4,4.2-3,5.3-4.3l1.5,1.3c0,0,0.4,0.3,0.4,0.6C145.7,8,145.5,8.1,145.4,8.1 M147.2,11.2c-0.2,0-0.3,0.1-0.4,0.1
		c-1.7,1.6-3.4,3.1-6.4,4.7l-1.7-1.8c3.7-1.7,5.7-3.5,7.1-5.2l1.5,1.3c0,0,0.5,0.4,0.5,0.7C147.8,11.2,147.5,11.2,147.2,11.2"/>
	<path class="st0" d="M20.2,19.9H10c-4.4,0-5.1-1.2-5.7-2.3c-0.8,0.9-1.7,1.7-2.5,2.3c-0.1,0.3-0.2,0.6-0.3,0.6
		c-0.1,0-0.2-0.1-0.3-0.3L0,17.8c1-0.4,2.1-1,2.9-1.6v-4.8H0.5V9.1h5v6.6c0,0.8,0.6,1.3,0.8,1.4c1.2,0.7,2.9,0.7,4.8,0.7
		c3.2,0,6.9-0.1,10.1-0.5L20.2,19.9z M3,5.8c-0.8-1.1-1.6-2-2.6-2.9l1.9-1.7c0.6,0.4,1.6,1.1,2.8,2.9L3,5.8z M14.4,15.9v1.5H12v-1.5
		H6.4V14H12v-0.9H7.2V6.6H12V5.7H8.8V4H12V3H8v2.4H5.8V1.3h14.4v4h-2.3V3h-3.5V4h2.8v1.7h-2.8v0.9h4.8v6.5h-4.8V14h5.9v1.9H14.4z
		 M12,8.1H9.4v1.1H12V8.1z M12,10.6H9.4v1.1H12V10.6z M17,8.1h-2.6v1.1H17V8.1z M17,10.6h-2.6v1.1H17V10.6z"/>
	<path class="st0" d="M20.2,19.9H10c-4.4,0-5.1-1.2-5.7-2.3c-0.8,0.9-1.7,1.7-2.5,2.3c-0.1,0.3-0.2,0.6-0.3,0.6
		c-0.1,0-0.2-0.1-0.3-0.3L0,17.8c1-0.4,2.1-1,2.9-1.6v-4.8H0.5V9.1h5v6.6c0,0.8,0.6,1.3,0.8,1.4c1.2,0.7,2.9,0.7,4.8,0.7
		c3.2,0,6.9-0.1,10.1-0.5L20.2,19.9z M3,5.8c-0.8-1.1-1.6-2-2.6-2.9l1.9-1.7c0.6,0.4,1.6,1.1,2.8,2.9L3,5.8z M14.4,15.9v1.5H12v-1.5
		H6.4V14H12v-0.9H7.2V6.6H12V5.7H8.8V4H12V3H8v2.4H5.8V1.3h14.4v4h-2.3V3h-3.5V4h2.8v1.7h-2.8v0.9h4.8v6.5h-4.8V14h5.9v1.9H14.4z
		 M12,8.1H9.4v1.1H12V8.1z M12,10.6H9.4v1.1H12V10.6z M17,8.1h-2.6v1.1H17V8.1z M17,10.6h-2.6v1.1H17V10.6z"/>
	<path class="st0" d="M20.2,19.9H10c-4.4,0-5.1-1.2-5.7-2.3c-0.8,0.9-1.7,1.7-2.5,2.3c-0.1,0.3-0.2,0.6-0.3,0.6
		c-0.1,0-0.2-0.1-0.3-0.3L0,17.8c1-0.4,2.1-1,2.9-1.6v-4.8H0.5V9.1h5v6.6c0,0.8,0.6,1.3,0.8,1.4c1.2,0.7,2.9,0.7,4.8,0.7
		c3.2,0,6.9-0.1,10.1-0.5L20.2,19.9z M3,5.8c-0.8-1.1-1.6-2-2.6-2.9l1.9-1.7c0.6,0.4,1.6,1.1,2.8,2.9L3,5.8z M14.4,15.9v1.5H12v-1.5
		H6.4V14H12v-0.9H7.2V6.6H12V5.7H8.8V4H12V3H8v2.4H5.8V1.3h14.4v4h-2.3V3h-3.5V4h2.8v1.7h-2.8v0.9h4.8v6.5h-4.8V14h5.9v1.9H14.4z
		 M12,8.1H9.4v1.1H12V8.1z M12,10.6H9.4v1.1H12V10.6z M17,8.1h-2.6v1.1H17V8.1z M17,10.6h-2.6v1.1H17V10.6z"/>
	<path class="st0" d="M32.7,29.7c0-1.8,1.5-3.2,3.2-3.2c1.8,0,3.2,1.5,3.2,3.2c0,1.8-1.5,3.2-3.2,3.2C34.2,32.9,32.7,31.5,32.7,29.7
		"/>
	<path class="st0" d="M48.8,29.8c0-1.8,1.5-3.2,3.2-3.2c1.8,0,3.2,1.5,3.2,3.2c0,1.8-1.5,3.2-3.2,3.2C50.3,33.1,48.8,31.6,48.8,29.8
		"/>
	<path class="st0" d="M64.9,31.9c0-1.8,1.5-3.2,3.2-3.2c1.8,0,3.2,1.4,3.2,3.2c0,1.8-1.5,3.2-3.2,3.2C66.4,35.2,64.9,33.7,64.9,31.9
		"/>
	<path class="st0" d="M0.5,35.4c0-1.8,1.5-3.2,3.2-3.2c1.8,0,3.2,1.5,3.2,3.2c0,1.8-1.5,3.2-3.2,3.2C2,38.6,0.5,37.2,0.5,35.4"/>
	<path class="st0" d="M16.6,31.1c0-1.8,1.5-3.2,3.2-3.2c1.8,0,3.2,1.5,3.2,3.2c0,1.8-1.5,3.2-3.2,3.2C18.1,34.4,16.6,32.9,16.6,31.1
		"/>
	<path class="st0" d="M81,35.2c0-1.8,1.5-3.2,3.2-3.2c1.8,0,3.2,1.5,3.2,3.2c0,1.8-1.5,3.2-3.2,3.2C82.5,38.4,81,37,81,35.2"/>
	<path class="st0" d="M97.1,37c0-1.8,1.5-3.2,3.2-3.2c1.8,0,3.2,1.5,3.2,3.2c0,1.8-1.5,3.2-3.2,3.2C98.6,40.2,97.1,38.8,97.1,37"/>
	<path class="st0" d="M113.2,37.5c0-1.8,1.5-3.2,3.2-3.2c1.8,0,3.2,1.4,3.2,3.2s-1.5,3.2-3.2,3.2C114.7,40.7,113.2,39.3,113.2,37.5"
		/>
	<path class="st0" d="M129.3,34.7c0-1.8,1.5-3.2,3.2-3.2c1.8,0,3.2,1.5,3.2,3.2c0,1.8-1.5,3.2-3.2,3.2
		C130.8,37.9,129.3,36.5,129.3,34.7"/>
	<path class="st0" d="M145.4,31.5c0-1.8,1.5-3.2,3.2-3.2c1.8,0,3.2,1.4,3.2,3.2c0,1.8-1.5,3.2-3.2,3.2
		C146.9,34.7,145.4,33.2,145.4,31.5"/>
</g>
</svg>
