<?xml version="1.0" encoding="utf-8"?>
<!-- Generator: Adobe Illustrator 15.0.0, SVG Export Plug-In . SVG Version: 6.00 Build 0)  -->
<!DOCTYPE svg PUBLIC "-//W3C//DTD SVG 1.1//EN" "http://www.w3.org/Graphics/SVG/1.1/DTD/svg11.dtd">
<svg version="1.1" id="logo_orange" xmlns="http://www.w3.org/2000/svg" xmlns:xlink="http://www.w3.org/1999/xlink" x="0px"
	 y="0px" width="300px" height="82px" viewBox="445.276 378.945 300 82" enable-background="new 445.276 378.945 300 82"
	 xml:space="preserve">
<path fill="#F87C15" d="M550.752,413.63c-1.096,5.72-2.799,6.814-7.788,6.937l-2.191-4.745c0.487,0.121,1.339,0.243,2.191,0.243
	c2.068,0,2.798-0.974,3.164-2.434c0.608-2.556,1.582-10.343,1.825-18.496h-2.92c-0.73,9.005-2.555,16.792-9.126,24.945l-4.624-2.312
	c0.608-0.609,1.096-1.096,2.313-2.435c-2.19,0.243-13.021,1.46-15.454,1.825c-0.974,0.122-1.095,0.122-1.46,0.487
	c-0.365,0.486-0.487,0.729-0.852,0.729c-0.365,0-0.608-0.243-0.73-0.852l-0.608-4.137c2.799-0.122,7.058-0.365,8.761-0.487v-2.433
	h-7.422v-3.408h7.422v-1.824h-7.057v-12.047h7.057v-2.19h-8.883v-3.407h8.883v-1.947c-0.973,0.122-2.434,0.243-5.597,0.243
	l-1.582-3.65c5.476,0.244,10.951,0.122,16.306-1.338l2.312,2.92c0.122,0.243,0.365,0.487,0.365,0.73
	c0,0.122-0.122,0.365-0.608,0.365c-0.122,0-1.217-0.365-1.46-0.365c-0.244,0-1.582,0.244-1.947,0.365c0,0-1.947,0.244-3.042,0.365
	v2.312h9.004v3.407h-9.004v1.947h7.058v12.047h-7.058v1.825h7.301v3.407h-7.301v2.068c4.259-0.365,4.867-0.365,7.422-0.608v1.339
	c0.73-1.096,1.947-3.042,3.042-6.814c1.46-4.746,1.947-8.761,2.069-11.195h-3.164v-4.38h3.407c0-4.989,0-4.989,0-9.126l4.867,0.244
	c0.365,0,1.096,0,1.096,0.608c0,0.243-0.122,0.365-0.244,0.487c-0.73,0.73-0.852,0.73-0.852,1.217c0,0.852-0.243,5.476-0.243,6.571
	h7.423C552.577,394.526,552.334,405.722,550.752,413.63 M523.13,395.621h-2.921v1.947h2.921V395.621z M523.13,400.367h-2.921v1.946
	h2.921V400.367z M530.675,395.621h-2.92v1.947h2.92V395.621z M530.675,400.367h-2.92v1.946h2.92V400.367z"/>
<path fill="#F87C15" d="M614.149,410.102c-0.607-0.122-1.094-0.365-1.824-0.608v10.465h-5.111v-1.096h-4.137v1.096h-5.232v-13.994
	h7.301c-2.799-1.825-4.623-3.163-6.693-5.719h-4.502c-2.312,2.799-3.65,4.016-5.719,5.598h6.693v14.115h-4.381v-1.096h-5.111v1.096
	h-4.988v-9.613c-0.852,0.365-1.217,0.608-1.947,0.852l-3.042-4.137c3.651-0.974,7.666-2.678,12.047-6.937h-9.735v-4.137h12.777
	c0.973-1.582,1.338-2.556,1.582-3.164h-12.047v-10.951h14.48v10.465l3.772,0.729c0.244,0,0.975,0.244,0.975,0.73
	c0,0.608-1.461,0.974-1.582,0.974c-0.244,0.365-0.365,0.608-0.852,1.217h18.252v4.138h-9.613c2.068,2.068,5.111,4.137,11.074,4.867
	L614.149,410.102z M589.569,385.521h-4.503v4.016h4.503V385.521z M590.543,409.736h-5.111v5.232h5.111V409.736z M598.209,381.871
	h13.994v10.952h-13.994V381.871z M606.848,385.521h-4.016v4.016h4.016V385.521z M607.213,409.858h-4.137v5.232h4.137V409.858z"/>
<path fill="#F87C15" d="M676.573,419.837c-3.285,0.121-6.57,0.121-9.734,0.121c-7.18,0-10.221-1.46-13.141-4.137
	c-1.703,2.312-2.922,3.65-4.26,4.867l-3.529-2.556v2.434h-4.988V399.88c-0.365,0.609-0.73,1.096-1.096,1.461l-4.502-2.678
	c5.354-7.787,7.301-14.602,8.152-18.131l4.867,1.46c0,0,0.975,0.365,0.975,0.974c0,0.365-0.244,0.487-0.365,0.608
	c-0.852,0.365-0.973,0.365-1.217,1.095c-0.486,1.704-0.852,2.677-1.947,5.232c1.096,0.608,1.217,0.608,1.217,1.095
	c0,0.122,0,0.365-0.486,0.73c-0.365,0.365-0.609,0.73-0.609,0.974v24.458c1.947-1.338,3.287-2.677,4.869-5.11
	c-1.705-2.556-2.799-5.476-3.773-8.518l3.895-1.095c0.242,0.973,0.486,2.068,1.824,5.232c1.096-3.895,1.217-6.328,1.34-8.275h-2.434
	c-0.73,1.339-0.852,1.582-1.34,2.313l-3.893-2.068c2.189-3.772,3.285-5.72,5.354-10.587h-3.285v-4.38h8.152l1.338,1.095
	c-1.096,2.799-2.189,5.354-4.137,9.491h4.258v-0.73h5.721v-1.946h-6.693v-3.408h6.693v-1.947h-5.111v-3.65h5.111v-2.556l3.527,0.122
	c2.313,0,2.313,0.365,2.313,0.609c0,0.243-0.365,0.608-0.486,0.729c-0.609,0.365-0.609,0.487-0.609,1.095h7.059v5.598h1.459v3.407
	h-1.338v5.597h-7.059v2.068h6.086v3.65h-6.086v2.191h8.154v3.65h-8.154v4.867h-4.744v-4.867h-6.449v-3.286
	c-0.365,1.704-0.852,3.407-1.826,5.841c2.434,2.556,4.625,3.529,8.883,3.529c4.746,0,9.613-0.365,14.359-1.096L676.573,419.837z
	 M663.918,404.018h-4.746v-3.651h4.746v-2.068h-5.477c-0.242,4.138-0.607,6.328-0.973,7.91h6.328v-2.19H663.918L663.918,404.018z
	 M670.975,387.225h-2.311v1.826h2.311V387.225z M670.975,392.579h-2.311v1.947h2.311V392.579z"/>
<path fill="#F87C15" d="M737.535,396.229c-4.744-3.042-7.666-6.327-9.734-9.126c-1.703,2.312-4.623,6.449-8.518,9.613l-3.041-2.313
	v3.164h-13.021v-3.772h11.682c1.217-0.852,1.826-1.338,2.557-2.068h-16.307v-3.894h17.402v2.92c2.92-2.799,5.719-6.206,7.178-10.222
	l4.869,1.096c0.121,0,1.094,0.243,1.094,0.852c0,0.487-0.486,0.73-0.852,0.852c1.461,2.799,4.99,6.206,10.344,9.005L737.535,396.229
	z M712.713,420.079v-1.46h-5.598v1.825h-4.381v-14.967h14.359v14.602H712.713z M702.979,399.637h13.264v3.772h-13.264V399.637z
	 M703.465,381.993h12.412v3.772h-12.412V381.993z M712.592,409.493h-5.598v4.989h5.598V409.493z M739.727,409.007
	c-0.73,0-0.973,0.121-1.582,0.729c-5.111,4.745-10.951,8.518-17.521,10.952l-3.529-4.381c8.639-2.678,14.236-6.328,19.469-11.925
	l3.043,2.556c0.242,0.243,0.973,0.974,0.973,1.46S740.213,409.007,739.727,409.007 M731.94,396.352
	c-0.73,0.121-0.854,0.121-1.096,0.243c-3.771,3.529-5.232,4.867-9.248,7.301l-3.285-3.406c4.988-2.799,8.273-5.841,10.342-8.396
	l3.043,2.555c0.121,0.122,0.73,0.73,0.73,1.095C732.426,396.229,732.182,396.352,731.94,396.352 M735.467,402.436
	c-0.486,0-0.729,0.122-0.852,0.243c-3.285,3.043-6.57,5.963-12.654,9.127l-3.406-3.65c7.178-3.286,11.072-6.814,13.992-10.222
	l3.043,2.677c0,0,0.973,0.852,0.973,1.338C736.563,402.436,736.076,402.436,735.467,402.436"/>
<path fill="#F87C15" d="M486.503,419.593h-19.956c-8.518,0-9.978-2.312-11.194-4.502c-1.582,1.703-3.286,3.285-4.868,4.502
	c-0.122,0.608-0.365,1.096-0.487,1.096c-0.243,0-0.486-0.244-0.608-0.609l-2.434-4.745c1.947-0.729,4.137-2.068,5.719-3.163v-9.492
	h-4.746v-4.502h9.856v12.898c0,1.582,1.217,2.556,1.46,2.677c2.312,1.46,5.719,1.46,9.491,1.46c6.328,0,13.629-0.243,19.713-0.973
	L486.503,419.593z M452.919,391.849c-1.46-2.068-3.042-3.894-5.111-5.719l3.651-3.286c1.095,0.852,3.042,2.19,5.476,5.598
	L452.919,391.849z M475.065,411.684v2.921h-4.502v-2.921H459.49v-3.651h11.073v-1.824h-9.491v-12.777h9.491v-1.703h-6.327v-3.407
	h6.327v-1.825h-7.788v4.745h-4.502v-8.274h28.23v7.91h-4.502v-4.38h-6.937v1.825h5.476v3.407h-5.476v1.825h9.491v12.655h-9.491
	v1.825h11.561v3.65H475.065z M470.563,396.352h-5.111v2.19h5.111V396.352L470.563,396.352z M470.563,401.341h-5.111v2.189h5.111
	V401.341L470.563,401.341z M480.176,396.352h-5.111v2.19h5.111V396.352z M480.176,401.341h-5.111v2.189h5.111V401.341z"/>
<path fill="#F87C15" d="M486.503,419.593h-19.956c-8.518,0-9.978-2.312-11.194-4.502c-1.582,1.703-3.286,3.285-4.868,4.502
	c-0.122,0.608-0.365,1.096-0.487,1.096c-0.243,0-0.486-0.244-0.608-0.609l-2.434-4.745c1.947-0.729,4.137-2.068,5.719-3.163v-9.492
	h-4.746v-4.502h9.856v12.898c0,1.582,1.217,2.556,1.46,2.677c2.312,1.46,5.719,1.46,9.491,1.46c6.328,0,13.629-0.243,19.713-0.973
	L486.503,419.593z M452.919,391.849c-1.46-2.068-3.042-3.894-5.111-5.719l3.651-3.286c1.095,0.852,3.042,2.19,5.476,5.598
	L452.919,391.849z M475.065,411.684v2.921h-4.502v-2.921H459.49v-3.651h11.073v-1.824h-9.491v-12.777h9.491v-1.703h-6.327v-3.407
	h6.327v-1.825h-7.788v4.745h-4.502v-8.274h28.23v7.91h-4.502v-4.38h-6.937v1.825h5.476v3.407h-5.476v1.825h9.491v12.655h-9.491
	v1.825h11.561v3.65H475.065z M470.563,396.352h-5.111v2.19h5.111V396.352L470.563,396.352z M470.563,401.341h-5.111v2.189h5.111
	V401.341L470.563,401.341z M480.176,396.352h-5.111v2.19h5.111V396.352z M480.176,401.341h-5.111v2.189h5.111V401.341z"/>
<path fill="#F87C15" d="M486.503,419.593h-19.956c-8.518,0-9.978-2.312-11.194-4.502c-1.582,1.703-3.286,3.285-4.868,4.502
	c-0.122,0.608-0.365,1.096-0.487,1.096c-0.243,0-0.486-0.244-0.608-0.609l-2.434-4.745c1.947-0.729,4.137-2.068,5.719-3.163v-9.492
	h-4.746v-4.502h9.856v12.898c0,1.582,1.217,2.556,1.46,2.677c2.312,1.46,5.719,1.46,9.491,1.46c6.328,0,13.629-0.243,19.713-0.973
	L486.503,419.593z M452.919,391.849c-1.46-2.068-3.042-3.894-5.111-5.719l3.651-3.286c1.095,0.852,3.042,2.19,5.476,5.598
	L452.919,391.849z M475.065,411.684v2.921h-4.502v-2.921H459.49v-3.651h11.073v-1.824h-9.491v-12.777h9.491v-1.703h-6.327v-3.407
	h6.327v-1.825h-7.788v4.745h-4.502v-8.274h28.23v7.91h-4.502v-4.38h-6.937v1.825h5.476v3.407h-5.476v1.825h9.491v12.655h-9.491
	v1.825h11.561v3.65H475.065z M470.563,396.352h-5.111v2.19h5.111V396.352L470.563,396.352z M470.563,401.341h-5.111v2.189h5.111
	V401.341L470.563,401.341z M480.176,396.352h-5.111v2.19h5.111V396.352z M480.176,401.341h-5.111v2.189h5.111V401.341z"/>
<path fill="#F87C15" d="M550.752,413.63c-1.096,5.72-2.799,6.814-7.788,6.937l-2.191-4.745c0.487,0.121,1.339,0.243,2.191,0.243
	c2.068,0,2.798-0.974,3.164-2.434c0.608-2.556,1.582-10.343,1.825-18.496h-2.92c-0.73,9.005-2.555,16.792-9.126,24.945l-4.624-2.312
	c0.608-0.609,1.096-1.096,2.313-2.435c-2.19,0.243-13.021,1.46-15.454,1.825c-0.974,0.122-1.095,0.122-1.46,0.487
	c-0.365,0.486-0.487,0.729-0.852,0.729c-0.365,0-0.608-0.243-0.73-0.852l-0.608-4.137c2.799-0.122,7.058-0.365,8.761-0.487v-2.433
	h-7.422v-3.408h7.422v-1.824h-7.057v-12.047h7.057v-2.19h-8.883v-3.407h8.883v-1.947c-0.973,0.122-2.434,0.243-5.597,0.243
	l-1.582-3.65c5.476,0.244,10.951,0.122,16.306-1.338l2.312,2.92c0.122,0.243,0.365,0.487,0.365,0.73
	c0,0.122-0.122,0.365-0.608,0.365c-0.122,0-1.217-0.365-1.46-0.365c-0.244,0-1.582,0.244-1.947,0.365c0,0-1.947,0.244-3.042,0.365
	v2.312h9.004v3.407h-9.004v1.947h7.058v12.047h-7.058v1.825h7.301v3.407h-7.301v2.068c4.259-0.365,4.867-0.365,7.422-0.608v1.339
	c0.73-1.096,1.947-3.042,3.042-6.814c1.46-4.746,1.947-8.761,2.069-11.195h-3.164v-4.38h3.407c0-4.989,0-4.989,0-9.126l4.867,0.244
	c0.365,0,1.096,0,1.096,0.608c0,0.243-0.122,0.365-0.244,0.487c-0.73,0.73-0.852,0.73-0.852,1.217c0,0.852-0.243,5.476-0.243,6.571
	h7.423C552.577,394.526,552.334,405.722,550.752,413.63 M523.13,395.621h-2.921v1.947h2.921V395.621z M523.13,400.367h-2.921v1.946
	h2.921V400.367z M530.675,395.621h-2.92v1.947h2.92V395.621z M530.675,400.367h-2.92v1.946h2.92V400.367z"/>
<path fill="#F87C15" d="M614.149,410.102c-0.607-0.122-1.094-0.365-1.824-0.608v10.465h-5.111v-1.096h-4.137v1.096h-5.232v-13.994
	h7.301c-2.799-1.825-4.623-3.163-6.693-5.719h-4.502c-2.312,2.799-3.65,4.016-5.719,5.598h6.693v14.115h-4.381v-1.096h-5.111v1.096
	h-4.988v-9.613c-0.852,0.365-1.217,0.608-1.947,0.852l-3.042-4.137c3.651-0.974,7.666-2.678,12.047-6.937h-9.735v-4.137h12.777
	c0.973-1.582,1.338-2.556,1.582-3.164h-12.047v-10.951h14.48v10.465l3.772,0.729c0.244,0,0.975,0.244,0.975,0.73
	c0,0.608-1.461,0.974-1.582,0.974c-0.244,0.365-0.365,0.608-0.852,1.217h18.252v4.138h-9.613c2.068,2.068,5.111,4.137,11.074,4.867
	L614.149,410.102z M589.569,385.521h-4.503v4.016h4.503V385.521z M590.543,409.736h-5.111v5.232h5.111V409.736z M598.209,381.871
	h13.994v10.952h-13.994V381.871z M606.848,385.521h-4.016v4.016h4.016V385.521z M607.213,409.858h-4.137v5.232h4.137V409.858z"/>
<path fill="#F87C15" d="M676.573,419.837c-3.285,0.121-6.57,0.121-9.734,0.121c-7.18,0-10.221-1.46-13.141-4.137
	c-1.703,2.312-2.922,3.65-4.26,4.867l-3.529-2.556v2.434h-4.988V399.88c-0.365,0.609-0.73,1.096-1.096,1.461l-4.502-2.678
	c5.354-7.787,7.301-14.602,8.152-18.131l4.867,1.46c0,0,0.975,0.365,0.975,0.974c0,0.365-0.244,0.487-0.365,0.608
	c-0.852,0.365-0.973,0.365-1.217,1.095c-0.486,1.704-0.852,2.677-1.947,5.232c1.096,0.608,1.217,0.608,1.217,1.095
	c0,0.122,0,0.365-0.486,0.73c-0.365,0.365-0.609,0.73-0.609,0.974v24.458c1.947-1.338,3.287-2.677,4.869-5.11
	c-1.705-2.556-2.799-5.476-3.773-8.518l3.895-1.095c0.242,0.973,0.486,2.068,1.824,5.232c1.096-3.895,1.217-6.328,1.34-8.275h-2.434
	c-0.73,1.339-0.852,1.582-1.34,2.313l-3.893-2.068c2.189-3.772,3.285-5.72,5.354-10.587h-3.285v-4.38h8.152l1.338,1.095
	c-1.096,2.799-2.189,5.354-4.137,9.491h4.258v-0.73h5.721v-1.946h-6.693v-3.408h6.693v-1.947h-5.111v-3.65h5.111v-2.556l3.527,0.122
	c2.313,0,2.313,0.365,2.313,0.609c0,0.243-0.365,0.608-0.486,0.729c-0.609,0.365-0.609,0.487-0.609,1.095h7.059v5.598h1.459v3.407
	h-1.338v5.597h-7.059v2.068h6.086v3.65h-6.086v2.191h8.154v3.65h-8.154v4.867h-4.744v-4.867h-6.449v-3.286
	c-0.365,1.704-0.852,3.407-1.826,5.841c2.434,2.556,4.625,3.529,8.883,3.529c4.746,0,9.613-0.365,14.359-1.096L676.573,419.837z
	 M663.918,404.018h-4.746v-3.651h4.746v-2.068h-5.477c-0.242,4.138-0.607,6.328-0.973,7.91h6.328v-2.19H663.918L663.918,404.018z
	 M670.975,387.225h-2.311v1.826h2.311V387.225z M670.975,392.579h-2.311v1.947h2.311V392.579z"/>
<path fill="#F87C15" d="M737.535,396.229c-4.744-3.042-7.666-6.327-9.734-9.126c-1.703,2.312-4.623,6.449-8.518,9.613l-3.041-2.313
	v3.164h-13.021v-3.772h11.682c1.217-0.852,1.826-1.338,2.557-2.068h-16.307v-3.894h17.402v2.92c2.92-2.799,5.719-6.206,7.178-10.222
	l4.869,1.096c0.121,0,1.094,0.243,1.094,0.852c0,0.487-0.486,0.73-0.852,0.852c1.461,2.799,4.99,6.206,10.344,9.005L737.535,396.229
	z M712.713,420.079v-1.46h-5.598v1.825h-4.381v-14.967h14.359v14.602H712.713z M702.979,399.637h13.264v3.772h-13.264V399.637z
	 M703.465,381.993h12.412v3.772h-12.412V381.993z M712.592,409.493h-5.598v4.989h5.598V409.493z M739.727,409.007
	c-0.73,0-0.973,0.121-1.582,0.729c-5.111,4.745-10.951,8.518-17.521,10.952l-3.529-4.381c8.639-2.678,14.236-6.328,19.469-11.925
	l3.043,2.556c0.242,0.243,0.973,0.974,0.973,1.46S740.213,409.007,739.727,409.007 M731.94,396.352
	c-0.73,0.121-0.854,0.121-1.096,0.243c-3.771,3.529-5.232,4.867-9.248,7.301l-3.285-3.406c4.988-2.799,8.273-5.841,10.342-8.396
	l3.043,2.555c0.121,0.122,0.73,0.73,0.73,1.095C732.426,396.229,732.182,396.352,731.94,396.352 M735.467,402.436
	c-0.486,0-0.729,0.122-0.852,0.243c-3.285,3.043-6.57,5.963-12.654,9.127l-3.406-3.65c7.178-3.286,11.072-6.814,13.992-10.222
	l3.043,2.677c0,0,0.973,0.852,0.973,1.338C736.563,402.436,736.076,402.436,735.467,402.436"/>
<path fill="#F87C15" d="M486.503,419.593h-19.956c-8.518,0-9.978-2.312-11.194-4.502c-1.582,1.703-3.286,3.285-4.868,4.502
	c-0.122,0.608-0.365,1.096-0.487,1.096c-0.243,0-0.486-0.244-0.608-0.609l-2.434-4.745c1.947-0.729,4.137-2.068,5.719-3.163v-9.492
	h-4.746v-4.502h9.856v12.898c0,1.582,1.217,2.556,1.46,2.677c2.312,1.46,5.719,1.46,9.491,1.46c6.328,0,13.629-0.243,19.713-0.973
	L486.503,419.593z M452.919,391.849c-1.46-2.068-3.042-3.894-5.111-5.719l3.651-3.286c1.095,0.852,3.042,2.19,5.476,5.598
	L452.919,391.849z M475.065,411.684v2.921h-4.502v-2.921H459.49v-3.651h11.073v-1.824h-9.491v-12.777h9.491v-1.703h-6.327v-3.407
	h6.327v-1.825h-7.788v4.745h-4.502v-8.274h28.23v7.91h-4.502v-4.38h-6.937v1.825h5.476v3.407h-5.476v1.825h9.491v12.655h-9.491
	v1.825h11.561v3.65H475.065z M470.563,396.352h-5.111v2.19h5.111V396.352L470.563,396.352z M470.563,401.341h-5.111v2.189h5.111
	V401.341L470.563,401.341z M480.176,396.352h-5.111v2.19h5.111V396.352z M480.176,401.341h-5.111v2.189h5.111V401.341z"/>
<path fill="#F87C15" d="M486.503,419.593h-19.956c-8.518,0-9.978-2.312-11.194-4.502c-1.582,1.703-3.286,3.285-4.868,4.502
	c-0.122,0.608-0.365,1.096-0.487,1.096c-0.243,0-0.486-0.244-0.608-0.609l-2.434-4.745c1.947-0.729,4.137-2.068,5.719-3.163v-9.492
	h-4.746v-4.502h9.856v12.898c0,1.582,1.217,2.556,1.46,2.677c2.312,1.46,5.719,1.46,9.491,1.46c6.328,0,13.629-0.243,19.713-0.973
	L486.503,419.593z M452.919,391.849c-1.46-2.068-3.042-3.894-5.111-5.719l3.651-3.286c1.095,0.852,3.042,2.19,5.476,5.598
	L452.919,391.849z M475.065,411.684v2.921h-4.502v-2.921H459.49v-3.651h11.073v-1.824h-9.491v-12.777h9.491v-1.703h-6.327v-3.407
	h6.327v-1.825h-7.788v4.745h-4.502v-8.274h28.23v7.91h-4.502v-4.38h-6.937v1.825h5.476v3.407h-5.476v1.825h9.491v12.655h-9.491
	v1.825h11.561v3.65H475.065z M470.563,396.352h-5.111v2.19h5.111V396.352L470.563,396.352z M470.563,401.341h-5.111v2.189h5.111
	V401.341L470.563,401.341z M480.176,396.352h-5.111v2.19h5.111V396.352z M480.176,401.341h-5.111v2.189h5.111V401.341z"/>
<path fill="#F87C15" d="M511.083,438.697c0-3.529,2.799-6.328,6.328-6.328c3.528,0,6.327,2.799,6.327,6.328
	s-2.798,6.328-6.327,6.328C513.882,445.025,511.083,442.227,511.083,438.697"/>
<path fill="#F87C15" d="M542.599,439.063c0-3.529,2.799-6.328,6.328-6.328s6.328,2.799,6.328,6.328s-2.798,6.327-6.328,6.327
	C545.52,445.39,542.599,442.47,542.599,439.063"/>
<path fill="#F87C15" d="M574.115,443.078c0-3.529,2.798-6.328,6.328-6.328s6.328,2.799,6.328,6.328s-2.799,6.328-6.328,6.328
	C577.035,449.405,574.115,446.606,574.115,443.078"/>
<path fill="#F87C15" d="M447.93,449.893c0-3.529,2.798-6.328,6.327-6.328c3.529,0,6.328,2.799,6.328,6.328
	c0,3.528-2.799,6.327-6.328,6.327C450.85,456.22,447.93,453.421,447.93,449.893"/>
<path fill="#F87C15" d="M479.567,441.496c0-3.529,2.799-6.328,6.328-6.328c3.529,0,6.328,2.799,6.328,6.328
	s-2.799,6.327-6.328,6.327C482.366,447.823,479.567,445.025,479.567,441.496"/>
<path fill="#F87C15" d="M605.754,449.405c0-3.528,2.799-6.327,6.326-6.327c3.529,0,6.328,2.798,6.328,6.327
	s-2.799,6.327-6.328,6.327C608.553,455.854,605.754,452.935,605.754,449.405"/>
<path fill="#F87C15" d="M637.27,452.935c0-3.529,2.799-6.328,6.328-6.328c3.527,0,6.326,2.799,6.326,6.328
	c0,3.528-2.799,6.327-6.326,6.327C640.069,459.384,637.27,456.463,637.27,452.935"/>
<path fill="#F87C15" d="M668.785,454.029c0-3.529,2.799-6.328,6.328-6.328c3.527,0,6.326,2.799,6.326,6.328
	s-2.799,6.328-6.326,6.328C671.705,460.357,668.785,457.437,668.785,454.029"/>
<path fill="#F87C15" d="M700.422,448.432c0-3.528,2.799-6.327,6.328-6.327s6.328,2.799,6.328,6.327c0,3.529-2.799,6.328-6.328,6.328
	S700.422,451.961,700.422,448.432"/>
<path fill="#F87C15" d="M731.94,442.104c0-3.528,2.797-6.327,6.326-6.327s6.328,2.798,6.328,6.327s-2.799,6.327-6.328,6.327
	C734.739,448.554,731.94,445.633,731.94,442.104"/>
<path fill="#F87C15" d="M550.752,413.63c-1.096,5.72-2.799,6.814-7.788,6.937l-2.191-4.745c0.487,0.121,1.339,0.243,2.191,0.243
	c2.068,0,2.798-0.974,3.164-2.434c0.608-2.556,1.582-10.343,1.825-18.496h-2.92c-0.73,9.005-2.555,16.792-9.126,24.945l-4.624-2.312
	c0.608-0.609,1.096-1.096,2.313-2.435c-2.19,0.243-13.021,1.46-15.454,1.825c-0.974,0.122-1.095,0.122-1.46,0.487
	c-0.365,0.486-0.487,0.729-0.852,0.729c-0.365,0-0.608-0.243-0.73-0.852l-0.608-4.137c2.799-0.122,7.058-0.365,8.761-0.487v-2.433
	h-7.422v-3.408h7.422v-1.824h-7.057v-12.047h7.057v-2.19h-8.883v-3.407h8.883v-1.947c-0.973,0.122-2.434,0.243-5.597,0.243
	l-1.582-3.65c5.476,0.244,10.951,0.122,16.306-1.338l2.312,2.92c0.122,0.243,0.365,0.487,0.365,0.73
	c0,0.122-0.122,0.365-0.608,0.365c-0.122,0-1.217-0.365-1.46-0.365c-0.244,0-1.582,0.244-1.947,0.365c0,0-1.947,0.244-3.042,0.365
	v2.312h9.004v3.407h-9.004v1.947h7.058v12.047h-7.058v1.825h7.301v3.407h-7.301v2.068c4.259-0.365,4.867-0.365,7.422-0.608v1.339
	c0.73-1.096,1.947-3.042,3.042-6.814c1.46-4.746,1.947-8.761,2.069-11.195h-3.164v-4.38h3.407c0-4.989,0-4.989,0-9.126l4.867,0.244
	c0.365,0,1.096,0,1.096,0.608c0,0.243-0.122,0.365-0.244,0.487c-0.73,0.73-0.852,0.73-0.852,1.217c0,0.852-0.243,5.476-0.243,6.571
	h7.423C552.577,394.526,552.334,405.722,550.752,413.63 M523.13,395.621h-2.921v1.947h2.921V395.621z M523.13,400.367h-2.921v1.946
	h2.921V400.367z M530.675,395.621h-2.92v1.947h2.92V395.621z M530.675,400.367h-2.92v1.946h2.92V400.367z"/>
<path fill="#F87C15" d="M614.149,410.102c-0.607-0.122-1.094-0.365-1.824-0.608v10.465h-5.111v-1.096h-4.137v1.096h-5.232v-13.994
	h7.301c-2.799-1.825-4.623-3.163-6.693-5.719h-4.502c-2.312,2.799-3.65,4.016-5.719,5.598h6.693v14.115h-4.381v-1.096h-5.111v1.096
	h-4.988v-9.613c-0.852,0.365-1.217,0.608-1.947,0.852l-3.042-4.137c3.651-0.974,7.666-2.678,12.047-6.937h-9.735v-4.137h12.777
	c0.973-1.582,1.338-2.556,1.582-3.164h-12.047v-10.951h14.48v10.465l3.772,0.729c0.244,0,0.975,0.244,0.975,0.73
	c0,0.608-1.461,0.974-1.582,0.974c-0.244,0.365-0.365,0.608-0.852,1.217h18.252v4.138h-9.613c2.068,2.068,5.111,4.137,11.074,4.867
	L614.149,410.102z M589.569,385.521h-4.503v4.016h4.503V385.521z M590.543,409.736h-5.111v5.232h5.111V409.736z M598.209,381.871
	h13.994v10.952h-13.994V381.871z M606.848,385.521h-4.016v4.016h4.016V385.521z M607.213,409.858h-4.137v5.232h4.137V409.858z"/>
<path fill="#F87C15" d="M676.573,419.837c-3.285,0.121-6.57,0.121-9.734,0.121c-7.18,0-10.221-1.46-13.141-4.137
	c-1.703,2.312-2.922,3.65-4.26,4.867l-3.529-2.556v2.434h-4.988V399.88c-0.365,0.609-0.73,1.096-1.096,1.461l-4.502-2.678
	c5.354-7.787,7.301-14.602,8.152-18.131l4.867,1.46c0,0,0.975,0.365,0.975,0.974c0,0.365-0.244,0.487-0.365,0.608
	c-0.852,0.365-0.973,0.365-1.217,1.095c-0.486,1.704-0.852,2.677-1.947,5.232c1.096,0.608,1.217,0.608,1.217,1.095
	c0,0.122,0,0.365-0.486,0.73c-0.365,0.365-0.609,0.73-0.609,0.974v24.458c1.947-1.338,3.287-2.677,4.869-5.11
	c-1.705-2.556-2.799-5.476-3.773-8.518l3.895-1.095c0.242,0.973,0.486,2.068,1.824,5.232c1.096-3.895,1.217-6.328,1.34-8.275h-2.434
	c-0.73,1.339-0.852,1.582-1.34,2.313l-3.893-2.068c2.189-3.772,3.285-5.72,5.354-10.587h-3.285v-4.38h8.152l1.338,1.095
	c-1.096,2.799-2.189,5.354-4.137,9.491h4.258v-0.73h5.721v-1.946h-6.693v-3.408h6.693v-1.947h-5.111v-3.65h5.111v-2.556l3.527,0.122
	c2.313,0,2.313,0.365,2.313,0.609c0,0.243-0.365,0.608-0.486,0.729c-0.609,0.365-0.609,0.487-0.609,1.095h7.059v5.598h1.459v3.407
	h-1.338v5.597h-7.059v2.068h6.086v3.65h-6.086v2.191h8.154v3.65h-8.154v4.867h-4.744v-4.867h-6.449v-3.286
	c-0.365,1.704-0.852,3.407-1.826,5.841c2.434,2.556,4.625,3.529,8.883,3.529c4.746,0,9.613-0.365,14.359-1.096L676.573,419.837z
	 M663.918,404.018h-4.746v-3.651h4.746v-2.068h-5.477c-0.242,4.138-0.607,6.328-0.973,7.91h6.328v-2.19H663.918L663.918,404.018z
	 M670.975,387.225h-2.311v1.826h2.311V387.225z M670.975,392.579h-2.311v1.947h2.311V392.579z"/>
<path fill="#F87C15" d="M737.535,396.229c-4.744-3.042-7.666-6.327-9.734-9.126c-1.703,2.312-4.623,6.449-8.518,9.613l-3.041-2.313
	v3.164h-13.021v-3.772h11.682c1.217-0.852,1.826-1.338,2.557-2.068h-16.307v-3.894h17.402v2.92c2.92-2.799,5.719-6.206,7.178-10.222
	l4.869,1.096c0.121,0,1.094,0.243,1.094,0.852c0,0.487-0.486,0.73-0.852,0.852c1.461,2.799,4.99,6.206,10.344,9.005L737.535,396.229
	z M712.713,420.079v-1.46h-5.598v1.825h-4.381v-14.967h14.359v14.602H712.713z M702.979,399.637h13.264v3.772h-13.264V399.637z
	 M703.465,381.993h12.412v3.772h-12.412V381.993z M712.592,409.493h-5.598v4.989h5.598V409.493z M739.727,409.007
	c-0.73,0-0.973,0.121-1.582,0.729c-5.111,4.745-10.951,8.518-17.521,10.952l-3.529-4.381c8.639-2.678,14.236-6.328,19.469-11.925
	l3.043,2.556c0.242,0.243,0.973,0.974,0.973,1.46S740.213,409.007,739.727,409.007 M731.94,396.352
	c-0.73,0.121-0.854,0.121-1.096,0.243c-3.771,3.529-5.232,4.867-9.248,7.301l-3.285-3.406c4.988-2.799,8.273-5.841,10.342-8.396
	l3.043,2.555c0.121,0.122,0.73,0.73,0.73,1.095C732.426,396.229,732.182,396.352,731.94,396.352 M735.467,402.436
	c-0.486,0-0.729,0.122-0.852,0.243c-3.285,3.043-6.57,5.963-12.654,9.127l-3.406-3.65c7.178-3.286,11.072-6.814,13.992-10.222
	l3.043,2.677c0,0,0.973,0.852,0.973,1.338C736.563,402.436,736.076,402.436,735.467,402.436"/>
<path fill="#F87C15" d="M486.503,419.593h-19.956c-8.518,0-9.978-2.312-11.194-4.502c-1.582,1.703-3.286,3.285-4.868,4.502
	c-0.122,0.608-0.365,1.096-0.487,1.096c-0.243,0-0.486-0.244-0.608-0.609l-2.434-4.745c1.947-0.729,4.137-2.068,5.719-3.163v-9.492
	h-4.746v-4.502h9.856v12.898c0,1.582,1.217,2.556,1.46,2.677c2.312,1.46,5.719,1.46,9.491,1.46c6.328,0,13.629-0.243,19.713-0.973
	L486.503,419.593z M452.919,391.849c-1.46-2.068-3.042-3.894-5.111-5.719l3.651-3.286c1.095,0.852,3.042,2.19,5.476,5.598
	L452.919,391.849z M475.065,411.684v2.921h-4.502v-2.921H459.49v-3.651h11.073v-1.824h-9.491v-12.777h9.491v-1.703h-6.327v-3.407
	h6.327v-1.825h-7.788v4.745h-4.502v-8.274h28.23v7.91h-4.502v-4.38h-6.937v1.825h5.476v3.407h-5.476v1.825h9.491v12.655h-9.491
	v1.825h11.561v3.65H475.065z M470.563,396.352h-5.111v2.19h5.111V396.352L470.563,396.352z M470.563,401.341h-5.111v2.189h5.111
	V401.341L470.563,401.341z M480.176,396.352h-5.111v2.19h5.111V396.352z M480.176,401.341h-5.111v2.189h5.111V401.341z"/>
<path fill="#F87C15" d="M486.503,419.593h-19.956c-8.518,0-9.978-2.312-11.194-4.502c-1.582,1.703-3.286,3.285-4.868,4.502
	c-0.122,0.608-0.365,1.096-0.487,1.096c-0.243,0-0.486-0.244-0.608-0.609l-2.434-4.745c1.947-0.729,4.137-2.068,5.719-3.163v-9.492
	h-4.746v-4.502h9.856v12.898c0,1.582,1.217,2.556,1.46,2.677c2.312,1.46,5.719,1.46,9.491,1.46c6.328,0,13.629-0.243,19.713-0.973
	L486.503,419.593z M452.919,391.849c-1.46-2.068-3.042-3.894-5.111-5.719l3.651-3.286c1.095,0.852,3.042,2.19,5.476,5.598
	L452.919,391.849z M475.065,411.684v2.921h-4.502v-2.921H459.49v-3.651h11.073v-1.824h-9.491v-12.777h9.491v-1.703h-6.327v-3.407
	h6.327v-1.825h-7.788v4.745h-4.502v-8.274h28.23v7.91h-4.502v-4.38h-6.937v1.825h5.476v3.407h-5.476v1.825h9.491v12.655h-9.491
	v1.825h11.561v3.65H475.065z M470.563,396.352h-5.111v2.19h5.111V396.352L470.563,396.352z M470.563,401.341h-5.111v2.189h5.111
	V401.341L470.563,401.341z M480.176,396.352h-5.111v2.19h5.111V396.352z M480.176,401.341h-5.111v2.189h5.111V401.341z"/>
<path fill="#F87C15" d="M486.503,419.593h-19.956c-8.518,0-9.978-2.312-11.194-4.502c-1.582,1.703-3.286,3.285-4.868,4.502
	c-0.122,0.608-0.365,1.096-0.487,1.096c-0.243,0-0.486-0.244-0.608-0.609l-2.434-4.745c1.947-0.729,4.137-2.068,5.719-3.163v-9.492
	h-4.746v-4.502h9.856v12.898c0,1.582,1.217,2.556,1.46,2.677c2.312,1.46,5.719,1.46,9.491,1.46c6.328,0,13.629-0.243,19.713-0.973
	L486.503,419.593z M452.919,391.849c-1.46-2.068-3.042-3.894-5.111-5.719l3.651-3.286c1.095,0.852,3.042,2.19,5.476,5.598
	L452.919,391.849z M475.065,411.684v2.921h-4.502v-2.921H459.49v-3.651h11.073v-1.824h-9.491v-12.777h9.491v-1.703h-6.327v-3.407
	h6.327v-1.825h-7.788v4.745h-4.502v-8.274h28.23v7.91h-4.502v-4.38h-6.937v1.825h5.476v3.407h-5.476v1.825h9.491v12.655h-9.491
	v1.825h11.561v3.65H475.065z M470.563,396.352h-5.111v2.19h5.111V396.352L470.563,396.352z M470.563,401.341h-5.111v2.189h5.111
	V401.341L470.563,401.341z M480.176,396.352h-5.111v2.19h5.111V396.352z M480.176,401.341h-5.111v2.189h5.111V401.341z"/>
<path fill="#F87C15" d="M550.752,413.63c-1.096,5.72-2.799,6.814-7.788,6.937l-2.191-4.745c0.487,0.121,1.339,0.243,2.191,0.243
	c2.068,0,2.798-0.974,3.164-2.434c0.608-2.556,1.582-10.343,1.825-18.496h-2.92c-0.73,9.005-2.555,16.792-9.126,24.945l-4.624-2.312
	c0.608-0.609,1.096-1.096,2.313-2.435c-2.19,0.243-13.021,1.46-15.454,1.825c-0.974,0.122-1.095,0.122-1.46,0.487
	c-0.365,0.486-0.487,0.729-0.852,0.729c-0.365,0-0.608-0.243-0.73-0.852l-0.608-4.137c2.799-0.122,7.058-0.365,8.761-0.487v-2.433
	h-7.422v-3.408h7.422v-1.824h-7.057v-12.047h7.057v-2.19h-8.883v-3.407h8.883v-1.947c-0.973,0.122-2.434,0.243-5.597,0.243
	l-1.582-3.65c5.476,0.244,10.951,0.122,16.306-1.338l2.312,2.92c0.122,0.243,0.365,0.487,0.365,0.73
	c0,0.122-0.122,0.365-0.608,0.365c-0.122,0-1.217-0.365-1.46-0.365c-0.244,0-1.582,0.244-1.947,0.365c0,0-1.947,0.244-3.042,0.365
	v2.312h9.004v3.407h-9.004v1.947h7.058v12.047h-7.058v1.825h7.301v3.407h-7.301v2.068c4.259-0.365,4.867-0.365,7.422-0.608v1.339
	c0.73-1.096,1.947-3.042,3.042-6.814c1.46-4.746,1.947-8.761,2.069-11.195h-3.164v-4.38h3.407c0-4.989,0-4.989,0-9.126l4.867,0.244
	c0.365,0,1.096,0,1.096,0.608c0,0.243-0.122,0.365-0.244,0.487c-0.73,0.73-0.852,0.73-0.852,1.217c0,0.852-0.243,5.476-0.243,6.571
	h7.423C552.577,394.526,552.334,405.722,550.752,413.63 M523.13,395.621h-2.921v1.947h2.921V395.621z M523.13,400.367h-2.921v1.946
	h2.921V400.367z M530.675,395.621h-2.92v1.947h2.92V395.621z M530.675,400.367h-2.92v1.946h2.92V400.367z"/>
<path fill="#F87C15" d="M614.149,410.102c-0.607-0.122-1.094-0.365-1.824-0.608v10.465h-5.111v-1.096h-4.137v1.096h-5.232v-13.994
	h7.301c-2.799-1.825-4.623-3.163-6.693-5.719h-4.502c-2.312,2.799-3.65,4.016-5.719,5.598h6.693v14.115h-4.381v-1.096h-5.111v1.096
	h-4.988v-9.613c-0.852,0.365-1.217,0.608-1.947,0.852l-3.042-4.137c3.651-0.974,7.666-2.678,12.047-6.937h-9.735v-4.137h12.777
	c0.973-1.582,1.338-2.556,1.582-3.164h-12.047v-10.951h14.48v10.465l3.772,0.729c0.244,0,0.975,0.244,0.975,0.73
	c0,0.608-1.461,0.974-1.582,0.974c-0.244,0.365-0.365,0.608-0.852,1.217h18.252v4.138h-9.613c2.068,2.068,5.111,4.137,11.074,4.867
	L614.149,410.102z M589.569,385.521h-4.503v4.016h4.503V385.521z M590.543,409.736h-5.111v5.232h5.111V409.736z M598.209,381.871
	h13.994v10.952h-13.994V381.871z M606.848,385.521h-4.016v4.016h4.016V385.521z M607.213,409.858h-4.137v5.232h4.137V409.858z"/>
<path fill="#F87C15" d="M676.573,419.837c-3.285,0.121-6.57,0.121-9.734,0.121c-7.18,0-10.221-1.46-13.141-4.137
	c-1.703,2.312-2.922,3.65-4.26,4.867l-3.529-2.556v2.434h-4.988V399.88c-0.365,0.609-0.73,1.096-1.096,1.461l-4.502-2.678
	c5.354-7.787,7.301-14.602,8.152-18.131l4.867,1.46c0,0,0.975,0.365,0.975,0.974c0,0.365-0.244,0.487-0.365,0.608
	c-0.852,0.365-0.973,0.365-1.217,1.095c-0.486,1.704-0.852,2.677-1.947,5.232c1.096,0.608,1.217,0.608,1.217,1.095
	c0,0.122,0,0.365-0.486,0.73c-0.365,0.365-0.609,0.73-0.609,0.974v24.458c1.947-1.338,3.287-2.677,4.869-5.11
	c-1.705-2.556-2.799-5.476-3.773-8.518l3.895-1.095c0.242,0.973,0.486,2.068,1.824,5.232c1.096-3.895,1.217-6.328,1.34-8.275h-2.434
	c-0.73,1.339-0.852,1.582-1.34,2.313l-3.893-2.068c2.189-3.772,3.285-5.72,5.354-10.587h-3.285v-4.38h8.152l1.338,1.095
	c-1.096,2.799-2.189,5.354-4.137,9.491h4.258v-0.73h5.721v-1.946h-6.693v-3.408h6.693v-1.947h-5.111v-3.65h5.111v-2.556l3.527,0.122
	c2.313,0,2.313,0.365,2.313,0.609c0,0.243-0.365,0.608-0.486,0.729c-0.609,0.365-0.609,0.487-0.609,1.095h7.059v5.598h1.459v3.407
	h-1.338v5.597h-7.059v2.068h6.086v3.65h-6.086v2.191h8.154v3.65h-8.154v4.867h-4.744v-4.867h-6.449v-3.286
	c-0.365,1.704-0.852,3.407-1.826,5.841c2.434,2.556,4.625,3.529,8.883,3.529c4.746,0,9.613-0.365,14.359-1.096L676.573,419.837z
	 M663.918,404.018h-4.746v-3.651h4.746v-2.068h-5.477c-0.242,4.138-0.607,6.328-0.973,7.91h6.328v-2.19H663.918L663.918,404.018z
	 M670.975,387.225h-2.311v1.826h2.311V387.225z M670.975,392.579h-2.311v1.947h2.311V392.579z"/>
<path fill="#F87C15" d="M737.535,396.229c-4.744-3.042-7.666-6.327-9.734-9.126c-1.703,2.312-4.623,6.449-8.518,9.613l-3.041-2.313
	v3.164h-13.021v-3.772h11.682c1.217-0.852,1.826-1.338,2.557-2.068h-16.307v-3.894h17.402v2.92c2.92-2.799,5.719-6.206,7.178-10.222
	l4.869,1.096c0.121,0,1.094,0.243,1.094,0.852c0,0.487-0.486,0.73-0.852,0.852c1.461,2.799,4.99,6.206,10.344,9.005L737.535,396.229
	z M712.713,420.079v-1.46h-5.598v1.825h-4.381v-14.967h14.359v14.602H712.713z M702.979,399.637h13.264v3.772h-13.264V399.637z
	 M703.465,381.993h12.412v3.772h-12.412V381.993z M712.592,409.493h-5.598v4.989h5.598V409.493z M739.727,409.007
	c-0.73,0-0.973,0.121-1.582,0.729c-5.111,4.745-10.951,8.518-17.521,10.952l-3.529-4.381c8.639-2.678,14.236-6.328,19.469-11.925
	l3.043,2.556c0.242,0.243,0.973,0.974,0.973,1.46S740.213,409.007,739.727,409.007 M731.94,396.352
	c-0.73,0.121-0.854,0.121-1.096,0.243c-3.771,3.529-5.232,4.867-9.248,7.301l-3.285-3.406c4.988-2.799,8.273-5.841,10.342-8.396
	l3.043,2.555c0.121,0.122,0.73,0.73,0.73,1.095C732.426,396.229,732.182,396.352,731.94,396.352 M735.467,402.436
	c-0.486,0-0.729,0.122-0.852,0.243c-3.285,3.043-6.57,5.963-12.654,9.127l-3.406-3.65c7.178-3.286,11.072-6.814,13.992-10.222
	l3.043,2.677c0,0,0.973,0.852,0.973,1.338C736.563,402.436,736.076,402.436,735.467,402.436"/>
<path fill="#F87C15" d="M486.503,419.593h-19.956c-8.518,0-9.978-2.312-11.194-4.502c-1.582,1.703-3.286,3.285-4.868,4.502
	c-0.122,0.608-0.365,1.096-0.487,1.096c-0.243,0-0.486-0.244-0.608-0.609l-2.434-4.745c1.947-0.729,4.137-2.068,5.719-3.163v-9.492
	h-4.746v-4.502h9.856v12.898c0,1.582,1.217,2.556,1.46,2.677c2.312,1.46,5.719,1.46,9.491,1.46c6.328,0,13.629-0.243,19.713-0.973
	L486.503,419.593z M452.919,391.849c-1.46-2.068-3.042-3.894-5.111-5.719l3.651-3.286c1.095,0.852,3.042,2.19,5.476,5.598
	L452.919,391.849z M475.065,411.684v2.921h-4.502v-2.921H459.49v-3.651h11.073v-1.824h-9.491v-12.777h9.491v-1.703h-6.327v-3.407
	h6.327v-1.825h-7.788v4.745h-4.502v-8.274h28.23v7.91h-4.502v-4.38h-6.937v1.825h5.476v3.407h-5.476v1.825h9.491v12.655h-9.491
	v1.825h11.561v3.65H475.065z M470.563,396.352h-5.111v2.19h5.111V396.352L470.563,396.352z M470.563,401.341h-5.111v2.189h5.111
	V401.341L470.563,401.341z M480.176,396.352h-5.111v2.19h5.111V396.352z M480.176,401.341h-5.111v2.189h5.111V401.341z"/>
<path fill="#F87C15" d="M486.503,419.593h-19.956c-8.518,0-9.978-2.312-11.194-4.502c-1.582,1.703-3.286,3.285-4.868,4.502
	c-0.122,0.608-0.365,1.096-0.487,1.096c-0.243,0-0.486-0.244-0.608-0.609l-2.434-4.745c1.947-0.729,4.137-2.068,5.719-3.163v-9.492
	h-4.746v-4.502h9.856v12.898c0,1.582,1.217,2.556,1.46,2.677c2.312,1.46,5.719,1.46,9.491,1.46c6.328,0,13.629-0.243,19.713-0.973
	L486.503,419.593z M452.919,391.849c-1.46-2.068-3.042-3.894-5.111-5.719l3.651-3.286c1.095,0.852,3.042,2.19,5.476,5.598
	L452.919,391.849z M475.065,411.684v2.921h-4.502v-2.921H459.49v-3.651h11.073v-1.824h-9.491v-12.777h9.491v-1.703h-6.327v-3.407
	h6.327v-1.825h-7.788v4.745h-4.502v-8.274h28.23v7.91h-4.502v-4.38h-6.937v1.825h5.476v3.407h-5.476v1.825h9.491v12.655h-9.491
	v1.825h11.561v3.65H475.065z M470.563,396.352h-5.111v2.19h5.111V396.352L470.563,396.352z M470.563,401.341h-5.111v2.189h5.111
	V401.341L470.563,401.341z M480.176,396.352h-5.111v2.19h5.111V396.352z M480.176,401.341h-5.111v2.189h5.111V401.341z"/>
<path fill="#F87C15" d="M486.503,419.593h-19.956c-8.518,0-9.978-2.312-11.194-4.502c-1.582,1.703-3.286,3.285-4.868,4.502
	c-0.122,0.608-0.365,1.096-0.487,1.096c-0.243,0-0.486-0.244-0.608-0.609l-2.434-4.745c1.947-0.729,4.137-2.068,5.719-3.163v-9.492
	h-4.746v-4.502h9.856v12.898c0,1.582,1.217,2.556,1.46,2.677c2.312,1.46,5.719,1.46,9.491,1.46c6.328,0,13.629-0.243,19.713-0.973
	L486.503,419.593z M452.919,391.849c-1.46-2.068-3.042-3.894-5.111-5.719l3.651-3.286c1.095,0.852,3.042,2.19,5.476,5.598
	L452.919,391.849z M475.065,411.684v2.921h-4.502v-2.921H459.49v-3.651h11.073v-1.824h-9.491v-12.777h9.491v-1.703h-6.327v-3.407
	h6.327v-1.825h-7.788v4.745h-4.502v-8.274h28.23v7.91h-4.502v-4.38h-6.937v1.825h5.476v3.407h-5.476v1.825h9.491v12.655h-9.491
	v1.825h11.561v3.65H475.065z M470.563,396.352h-5.111v2.19h5.111V396.352L470.563,396.352z M470.563,401.341h-5.111v2.189h5.111
	V401.341L470.563,401.341z M480.176,396.352h-5.111v2.19h5.111V396.352z M480.176,401.341h-5.111v2.189h5.111V401.341z"/>
<path fill="#F87C15" d="M550.752,413.63c-1.096,5.72-2.799,6.814-7.788,6.937l-2.191-4.745c0.487,0.121,1.339,0.243,2.191,0.243
	c2.068,0,2.798-0.974,3.164-2.434c0.608-2.556,1.582-10.343,1.825-18.496h-2.92c-0.73,9.005-2.555,16.792-9.126,24.945l-4.624-2.312
	c0.608-0.609,1.096-1.096,2.313-2.435c-2.19,0.243-13.021,1.46-15.454,1.825c-0.974,0.122-1.095,0.122-1.46,0.487
	c-0.365,0.486-0.487,0.729-0.852,0.729c-0.365,0-0.608-0.243-0.73-0.852l-0.608-4.137c2.799-0.122,7.058-0.365,8.761-0.487v-2.433
	h-7.422v-3.408h7.422v-1.824h-7.057v-12.047h7.057v-2.19h-8.883v-3.407h8.883v-1.947c-0.973,0.122-2.434,0.243-5.597,0.243
	l-1.582-3.65c5.476,0.244,10.951,0.122,16.306-1.338l2.312,2.92c0.122,0.243,0.365,0.487,0.365,0.73
	c0,0.122-0.122,0.365-0.608,0.365c-0.122,0-1.217-0.365-1.46-0.365c-0.244,0-1.582,0.244-1.947,0.365c0,0-1.947,0.244-3.042,0.365
	v2.312h9.004v3.407h-9.004v1.947h7.058v12.047h-7.058v1.825h7.301v3.407h-7.301v2.068c4.259-0.365,4.867-0.365,7.422-0.608v1.339
	c0.73-1.096,1.947-3.042,3.042-6.814c1.46-4.746,1.947-8.761,2.069-11.195h-3.164v-4.38h3.407c0-4.989,0-4.989,0-9.126l4.867,0.244
	c0.365,0,1.096,0,1.096,0.608c0,0.243-0.122,0.365-0.244,0.487c-0.73,0.73-0.852,0.73-0.852,1.217c0,0.852-0.243,5.476-0.243,6.571
	h7.423C552.577,394.526,552.334,405.722,550.752,413.63 M523.13,395.621h-2.921v1.947h2.921V395.621z M523.13,400.367h-2.921v1.946
	h2.921V400.367z M530.675,395.621h-2.92v1.947h2.92V395.621z M530.675,400.367h-2.92v1.946h2.92V400.367z"/>
<path fill="#F87C15" d="M614.149,410.102c-0.607-0.122-1.094-0.365-1.824-0.608v10.465h-5.111v-1.096h-4.137v1.096h-5.232v-13.994
	h7.301c-2.799-1.825-4.623-3.163-6.693-5.719h-4.502c-2.312,2.799-3.65,4.016-5.719,5.598h6.693v14.115h-4.381v-1.096h-5.111v1.096
	h-4.988v-9.613c-0.852,0.365-1.217,0.608-1.947,0.852l-3.042-4.137c3.651-0.974,7.666-2.678,12.047-6.937h-9.735v-4.137h12.777
	c0.973-1.582,1.338-2.556,1.582-3.164h-12.047v-10.951h14.48v10.465l3.772,0.729c0.244,0,0.975,0.244,0.975,0.73
	c0,0.608-1.461,0.974-1.582,0.974c-0.244,0.365-0.365,0.608-0.852,1.217h18.252v4.138h-9.613c2.068,2.068,5.111,4.137,11.074,4.867
	L614.149,410.102z M589.569,385.521h-4.503v4.016h4.503V385.521z M590.543,409.736h-5.111v5.232h5.111V409.736z M598.209,381.871
	h13.994v10.952h-13.994V381.871z M606.848,385.521h-4.016v4.016h4.016V385.521z M607.213,409.858h-4.137v5.232h4.137V409.858z"/>
<path fill="#F87C15" d="M676.573,419.837c-3.285,0.121-6.57,0.121-9.734,0.121c-7.18,0-10.221-1.46-13.141-4.137
	c-1.703,2.312-2.922,3.65-4.26,4.867l-3.529-2.556v2.434h-4.988V399.88c-0.365,0.609-0.73,1.096-1.096,1.461l-4.502-2.678
	c5.354-7.787,7.301-14.602,8.152-18.131l4.867,1.46c0,0,0.975,0.365,0.975,0.974c0,0.365-0.244,0.487-0.365,0.608
	c-0.852,0.365-0.973,0.365-1.217,1.095c-0.486,1.704-0.852,2.677-1.947,5.232c1.096,0.608,1.217,0.608,1.217,1.095
	c0,0.122,0,0.365-0.486,0.73c-0.365,0.365-0.609,0.73-0.609,0.974v24.458c1.947-1.338,3.287-2.677,4.869-5.11
	c-1.705-2.556-2.799-5.476-3.773-8.518l3.895-1.095c0.242,0.973,0.486,2.068,1.824,5.232c1.096-3.895,1.217-6.328,1.34-8.275h-2.434
	c-0.73,1.339-0.852,1.582-1.34,2.313l-3.893-2.068c2.189-3.772,3.285-5.72,5.354-10.587h-3.285v-4.38h8.152l1.338,1.095
	c-1.096,2.799-2.189,5.354-4.137,9.491h4.258v-0.73h5.721v-1.946h-6.693v-3.408h6.693v-1.947h-5.111v-3.65h5.111v-2.556l3.527,0.122
	c2.313,0,2.313,0.365,2.313,0.609c0,0.243-0.365,0.608-0.486,0.729c-0.609,0.365-0.609,0.487-0.609,1.095h7.059v5.598h1.459v3.407
	h-1.338v5.597h-7.059v2.068h6.086v3.65h-6.086v2.191h8.154v3.65h-8.154v4.867h-4.744v-4.867h-6.449v-3.286
	c-0.365,1.704-0.852,3.407-1.826,5.841c2.434,2.556,4.625,3.529,8.883,3.529c4.746,0,9.613-0.365,14.359-1.096L676.573,419.837z
	 M663.918,404.018h-4.746v-3.651h4.746v-2.068h-5.477c-0.242,4.138-0.607,6.328-0.973,7.91h6.328v-2.19H663.918L663.918,404.018z
	 M670.975,387.225h-2.311v1.826h2.311V387.225z M670.975,392.579h-2.311v1.947h2.311V392.579z"/>
<path fill="#F87C15" d="M737.535,396.229c-4.744-3.042-7.666-6.327-9.734-9.126c-1.703,2.312-4.623,6.449-8.518,9.613l-3.041-2.313
	v3.164h-13.021v-3.772h11.682c1.217-0.852,1.826-1.338,2.557-2.068h-16.307v-3.894h17.402v2.92c2.92-2.799,5.719-6.206,7.178-10.222
	l4.869,1.096c0.121,0,1.094,0.243,1.094,0.852c0,0.487-0.486,0.73-0.852,0.852c1.461,2.799,4.99,6.206,10.344,9.005L737.535,396.229
	z M712.713,420.079v-1.46h-5.598v1.825h-4.381v-14.967h14.359v14.602H712.713z M702.979,399.637h13.264v3.772h-13.264V399.637z
	 M703.465,381.993h12.412v3.772h-12.412V381.993z M712.592,409.493h-5.598v4.989h5.598V409.493z M739.727,409.007
	c-0.73,0-0.973,0.121-1.582,0.729c-5.111,4.745-10.951,8.518-17.521,10.952l-3.529-4.381c8.639-2.678,14.236-6.328,19.469-11.925
	l3.043,2.556c0.242,0.243,0.973,0.974,0.973,1.46S740.213,409.007,739.727,409.007 M731.94,396.352
	c-0.73,0.121-0.854,0.121-1.096,0.243c-3.771,3.529-5.232,4.867-9.248,7.301l-3.285-3.406c4.988-2.799,8.273-5.841,10.342-8.396
	l3.043,2.555c0.121,0.122,0.73,0.73,0.73,1.095C732.426,396.229,732.182,396.352,731.94,396.352 M735.467,402.436
	c-0.486,0-0.729,0.122-0.852,0.243c-3.285,3.043-6.57,5.963-12.654,9.127l-3.406-3.65c7.178-3.286,11.072-6.814,13.992-10.222
	l3.043,2.677c0,0,0.973,0.852,0.973,1.338C736.563,402.436,736.076,402.436,735.467,402.436"/>
<path fill="#F87C15" d="M486.503,419.593h-19.956c-8.518,0-9.978-2.312-11.194-4.502c-1.582,1.703-3.286,3.285-4.868,4.502
	c-0.122,0.608-0.365,1.096-0.487,1.096c-0.243,0-0.486-0.244-0.608-0.609l-2.434-4.745c1.947-0.729,4.137-2.068,5.719-3.163v-9.492
	h-4.746v-4.502h9.856v12.898c0,1.582,1.217,2.556,1.46,2.677c2.312,1.46,5.719,1.46,9.491,1.46c6.328,0,13.629-0.243,19.713-0.973
	L486.503,419.593z M452.919,391.849c-1.46-2.068-3.042-3.894-5.111-5.719l3.651-3.286c1.095,0.852,3.042,2.19,5.476,5.598
	L452.919,391.849z M475.065,411.684v2.921h-4.502v-2.921H459.49v-3.651h11.073v-1.824h-9.491v-12.777h9.491v-1.703h-6.327v-3.407
	h6.327v-1.825h-7.788v4.745h-4.502v-8.274h28.23v7.91h-4.502v-4.38h-6.937v1.825h5.476v3.407h-5.476v1.825h9.491v12.655h-9.491
	v1.825h11.561v3.65H475.065z M470.563,396.352h-5.111v2.19h5.111V396.352L470.563,396.352z M470.563,401.341h-5.111v2.189h5.111
	V401.341L470.563,401.341z M480.176,396.352h-5.111v2.19h5.111V396.352z M480.176,401.341h-5.111v2.189h5.111V401.341z"/>
<path fill="#F87C15" d="M486.503,419.593h-19.956c-8.518,0-9.978-2.312-11.194-4.502c-1.582,1.703-3.286,3.285-4.868,4.502
	c-0.122,0.608-0.365,1.096-0.487,1.096c-0.243,0-0.486-0.244-0.608-0.609l-2.434-4.745c1.947-0.729,4.137-2.068,5.719-3.163v-9.492
	h-4.746v-4.502h9.856v12.898c0,1.582,1.217,2.556,1.46,2.677c2.312,1.46,5.719,1.46,9.491,1.46c6.328,0,13.629-0.243,19.713-0.973
	L486.503,419.593z M452.919,391.849c-1.46-2.068-3.042-3.894-5.111-5.719l3.651-3.286c1.095,0.852,3.042,2.19,5.476,5.598
	L452.919,391.849z M475.065,411.684v2.921h-4.502v-2.921H459.49v-3.651h11.073v-1.824h-9.491v-12.777h9.491v-1.703h-6.327v-3.407
	h6.327v-1.825h-7.788v4.745h-4.502v-8.274h28.23v7.91h-4.502v-4.38h-6.937v1.825h5.476v3.407h-5.476v1.825h9.491v12.655h-9.491
	v1.825h11.561v3.65H475.065z M470.563,396.352h-5.111v2.19h5.111V396.352L470.563,396.352z M470.563,401.341h-5.111v2.189h5.111
	V401.341L470.563,401.341z M480.176,396.352h-5.111v2.19h5.111V396.352z M480.176,401.341h-5.111v2.189h5.111V401.341z"/>
<path fill="#F87C15" d="M486.503,419.593h-19.956c-8.518,0-9.978-2.312-11.194-4.502c-1.582,1.703-3.286,3.285-4.868,4.502
	c-0.122,0.608-0.365,1.096-0.487,1.096c-0.243,0-0.486-0.244-0.608-0.609l-2.434-4.745c1.947-0.729,4.137-2.068,5.719-3.163v-9.492
	h-4.746v-4.502h9.856v12.898c0,1.582,1.217,2.556,1.46,2.677c2.312,1.46,5.719,1.46,9.491,1.46c6.328,0,13.629-0.243,19.713-0.973
	L486.503,419.593z M452.919,391.849c-1.46-2.068-3.042-3.894-5.111-5.719l3.651-3.286c1.095,0.852,3.042,2.19,5.476,5.598
	L452.919,391.849z M475.065,411.684v2.921h-4.502v-2.921H459.49v-3.651h11.073v-1.824h-9.491v-12.777h9.491v-1.703h-6.327v-3.407
	h6.327v-1.825h-7.788v4.745h-4.502v-8.274h28.23v7.91h-4.502v-4.38h-6.937v1.825h5.476v3.407h-5.476v1.825h9.491v12.655h-9.491
	v1.825h11.561v3.65H475.065z M470.563,396.352h-5.111v2.19h5.111V396.352L470.563,396.352z M470.563,401.341h-5.111v2.189h5.111
	V401.341L470.563,401.341z M480.176,396.352h-5.111v2.19h5.111V396.352z M480.176,401.341h-5.111v2.189h5.111V401.341z"/>
<path fill="#F87C15" d="M511.083,438.697c0-3.529,2.799-6.328,6.328-6.328c3.528,0,6.327,2.799,6.327,6.328
	s-2.798,6.328-6.327,6.328C513.882,445.025,511.083,442.227,511.083,438.697"/>
<path fill="#F87C15" d="M542.599,439.063c0-3.529,2.799-6.328,6.328-6.328s6.328,2.799,6.328,6.328s-2.798,6.327-6.328,6.327
	C545.52,445.39,542.599,442.47,542.599,439.063"/>
<path fill="#F87C15" d="M574.115,443.078c0-3.529,2.798-6.328,6.328-6.328s6.328,2.799,6.328,6.328s-2.799,6.328-6.328,6.328
	C577.035,449.405,574.115,446.606,574.115,443.078"/>
<path fill="#F87C15" d="M447.93,449.893c0-3.529,2.798-6.328,6.327-6.328c3.529,0,6.328,2.799,6.328,6.328
	c0,3.528-2.799,6.327-6.328,6.327C450.85,456.22,447.93,453.421,447.93,449.893"/>
<path fill="#F87C15" d="M479.567,441.496c0-3.529,2.799-6.328,6.328-6.328c3.529,0,6.328,2.799,6.328,6.328
	s-2.799,6.327-6.328,6.327C482.366,447.823,479.567,445.025,479.567,441.496"/>
<path fill="#F87C15" d="M605.754,449.405c0-3.528,2.799-6.327,6.326-6.327c3.529,0,6.328,2.798,6.328,6.327
	s-2.799,6.327-6.328,6.327C608.553,455.854,605.754,452.935,605.754,449.405"/>
<path fill="#F87C15" d="M637.27,452.935c0-3.529,2.799-6.328,6.328-6.328c3.527,0,6.326,2.799,6.326,6.328
	c0,3.528-2.799,6.327-6.326,6.327C640.069,459.384,637.27,456.463,637.27,452.935"/>
<path fill="#F87C15" d="M668.785,454.029c0-3.529,2.799-6.328,6.328-6.328c3.527,0,6.326,2.799,6.326,6.328
	s-2.799,6.328-6.326,6.328C671.705,460.357,668.785,457.437,668.785,454.029"/>
<path fill="#F87C15" d="M700.422,448.432c0-3.528,2.799-6.327,6.328-6.327s6.328,2.799,6.328,6.327c0,3.529-2.799,6.328-6.328,6.328
	S700.422,451.961,700.422,448.432"/>
<path fill="#F87C15" d="M731.94,442.104c0-3.528,2.797-6.327,6.326-6.327s6.328,2.798,6.328,6.327s-2.799,6.327-6.328,6.327
	C734.739,448.554,731.94,445.633,731.94,442.104"/>
<rect x="445.276" y="378.945" fill="none" width="300" height="82"/>
</svg>
