<svg version="1.1" id="management_account__g_nav_tit" xmlns="http://www.w3.org/2000/svg" xmlns:xlink="http://www.w3.org/1999/xlink" x="0px"
	 y="0px" viewBox="0 0 141.1 14.8" style="enable-background:new 0 0 141.1 14.8;" xml:space="preserve">
<style type="text/css">
	.st0{fill:#4D4D4D;}
</style>
<g>
	<path class="st0" d="M7,5C7,5.3,7,5.3,7,6.3C6.9,9,6.5,10.5,5.4,11.9c-1,1.2-2.1,2-4.1,2.9C0.8,13.9,0.6,13.6,0,13
		c1.3-0.4,2-0.7,2.8-1.4C4.4,10.3,4.9,9,4.9,5.9c0-0.5,0-0.6-0.1-1H7z M13.5,3c-0.2,0.3-0.2,0.3-0.6,1.1c-0.6,1.2-1.5,2.4-2.5,3.2
		C9.8,7.9,9.2,8.2,8.5,8.6C8,7.9,7.8,7.7,7.1,7.2c1.1-0.5,1.7-0.8,2.3-1.5c0.7-0.6,1.1-1.3,1.5-2H2.5c-1.1,0-1.5,0-2.2,0.1v-2
		C1,1.9,1.5,1.9,2.6,1.9h8.3c1,0,1.1,0,1.5-0.2L13.5,3z"/>
	<path class="st0" d="M28.6,4.5c-0.1,0.3-0.2,0.5-0.2,1.1c0,1.8-0.2,4.3-0.4,5.3c-0.4,2.8-1,3.4-2.9,3.4c-0.6,0-1.1,0-2-0.2
		c0-1-0.1-1.3-0.4-2c0.9,0.3,1.6,0.4,2.1,0.4c0.7,0,0.9-0.4,1.2-1.7c0.2-1.1,0.4-3.3,0.4-5.1l-3.7,0c-0.2,2-0.6,3.2-1.3,4.6
		c-0.9,1.7-2.3,3.1-4.3,4.4c-0.5-0.8-0.8-1.1-1.4-1.7c2-1.1,3.3-2.3,4.1-4c0.4-0.9,0.7-1.7,0.8-2.8c0-0.2,0.1-0.4,0.1-0.5l-2.6,0
		c-1,0-1.2,0-1.7,0.1l0-2c0.5,0.1,1,0.1,1.8,0.1l2.8,0c0-0.6,0.1-1.5,0.1-2V1.5c0-0.2,0-0.3,0-0.6l2.1,0c0,0.2,0,0.3-0.1,0.5
		c0,0.1,0,0.2,0,0.3c0,0.3,0,0.3-0.1,1.2c0,0.4,0,0.5-0.1,1l3.5,0c0.7,0,0.9,0,1.3-0.1L28.6,4.5z"/>
	<path class="st0" d="M44.8,4.2c-0.1,0.3-0.2,0.4-0.2,0.9C44.3,7,44,7.9,43.5,9c-0.8,1.8-2.1,3.3-3.9,4.4c-1,0.6-1.8,1-3.2,1.4
		c-0.4-0.8-0.6-1.1-1.3-1.9c1.5-0.4,2.4-0.7,3.4-1.3c2.3-1.4,3.5-3.5,3.8-6.4h-7.8v2.1c0,0.5,0,0.9,0,1.3h-2.1
		c0-0.4,0.1-0.9,0.1-1.3V4.9c0-0.7,0-1.1-0.1-1.5c0.6,0.1,0.8,0.1,1.7,0.1h3.1V2.1c0-0.5,0-0.8-0.1-1.2h2.2c0,0.3-0.1,0.7-0.1,1.2
		v1.4h2.9c1.2,0,1.2,0,1.6-0.1L44.8,4.2z"/>
	<path class="st0" d="M48.3,12c1.4-0.1,3.3-0.5,4.7-1.2c2-0.9,3.5-2.1,4.7-3.9c0.7-1,1.1-1.9,1.6-3.2c0.6,0.8,0.9,1,1.7,1.6
		c-1.4,2.9-2.9,4.8-5.1,6.3c-1.6,1.1-3.6,1.9-6.1,2.4c-0.6,0.1-0.7,0.1-1.1,0.3L48.3,12z M49.7,2.1c1.9,1.2,2.9,1.9,4.1,3.1L52.4,7
		c-1.3-1.4-2.6-2.4-4.1-3.2L49.7,2.1z"/>
	<path class="st0" d="M66.6,14.7c0.1-0.5,0.1-0.9,0.1-1.8V2.7c0-0.8,0-1.2-0.1-1.6h2.2c-0.1,0.5-0.1,0.7-0.1,1.7v3
		C70.9,6.4,73.4,7.6,76,9l-1.1,1.9c-1.3-0.9-3-1.8-5.6-3c-0.4-0.2-0.4-0.2-0.5-0.3c0,0.4,0.1,0.6,0.1,1.1v4.2c0,0.8,0,1.2,0.1,1.8
		H66.6z"/>
	<path class="st0" d="M88.4,4.1l0-0.7V2.9c0-1.1,0-1.4-0.1-1.8h2.1c0,0.4-0.1,0.4-0.1,1.1c0,1,0,1,0,1.9h1c1.1,0,1.5,0,2.1-0.1V6
		c-0.6-0.1-1-0.1-2-0.1h-1.1c0,1.9,0,2-0.1,2.6c-0.2,2-0.9,3.4-2.3,4.6c-0.9,0.7-1.6,1.1-3.1,1.7c-0.3-0.7-0.5-1-1.2-1.7
		c1.5-0.5,2.3-0.8,3-1.5c1.1-0.9,1.5-2,1.7-3.8c0-0.4,0-0.7,0.1-1.9h-4.1v2.4c0,0.7,0,0.9,0.1,1.3h-2.1c0-0.4,0.1-0.8,0.1-1.4V5.9
		h-1c-1.1,0-1.5,0-2,0.1V4c0.6,0.1,0.9,0.1,2.1,0.1h0.9V2.5c0-0.7,0-1-0.1-1.4h2.1c-0.1,0.5-0.1,0.6-0.1,1.4v1.6H88.4z"/>
	<path class="st0" d="M95.4,6.7c0.7,0.1,1,0.1,2.6,0.1h8.5c1.6,0,1.9,0,2.6-0.1V9c-0.6-0.1-0.8-0.1-2.6-0.1H98c-1.8,0-2,0-2.6,0.1
		V6.7z"/>
	<path class="st0" d="M115,6.3c2.4-0.4,5.9-1.9,7-2.8l1.3,1.8c-0.1,0-0.6,0.3-1.4,0.7c-2.2,1-4.4,1.8-6.8,2.2v2.1c0,0.1,0,0.2,0,0.2
		c0,0.9,0.1,1.3,0.3,1.5c0.3,0.3,1.2,0.4,2.7,0.4c1.1,0,2.5-0.1,3.7-0.3c0.8-0.1,1.1-0.2,1.8-0.4l0.1,2.1c-0.3,0-0.4,0-2.1,0.2
		c-0.9,0.1-3,0.2-3.9,0.2c-2,0-3.1-0.2-3.7-0.7c-0.4-0.3-0.7-0.8-0.8-1.6c0-0.3,0-0.5,0-1.5l0-7.4c0-0.8,0-1.1-0.1-1.5h2.1
		C115,2,115,2.3,115,3.1V6.3z M122.6,0.9c0.6,0.7,1.1,1.4,1.6,2.4L123,3.8c-0.5-1-0.9-1.7-1.6-2.4L122.6,0.9z M125,2.9
		c-0.4-0.9-0.9-1.6-1.5-2.4l1.1-0.5c0.7,0.8,1.1,1.4,1.6,2.3L125,2.9z"/>
	<path class="st0" d="M139.6,14.5c-1.3-1.6-3.2-3.4-4.9-4.7c-1.8,2-3.6,3.4-6.1,4.6c-0.4-0.8-0.6-1.1-1.3-1.8c1.2-0.5,2-0.9,3.2-1.8
		c2.4-1.7,4.3-4,5.4-6.5l0.2-0.4c-0.3,0-0.3,0-5.3,0.1c-0.8,0-1.2,0-1.7,0.1l-0.1-2c0.4,0.1,0.8,0.1,1.4,0.1h0.4l5.6-0.1
		c0.9,0,1,0,1.4-0.2l1.1,1.1c-0.2,0.2-0.3,0.5-0.5,0.9c-0.7,1.7-1.5,3.1-2.5,4.4c1,0.7,1.9,1.3,3,2.3c0.4,0.3,0.4,0.3,2.3,2.2
		L139.6,14.5z"/>
</g>
</svg>
