<svg version="1.1" id="management__g_nav_tit" xmlns="http://www.w3.org/2000/svg" xmlns:xlink="http://www.w3.org/1999/xlink" x="0px"
	 y="0px" viewBox="0 0 163.4 15" style="enable-background:new 0 0 163.4 15;" xml:space="preserve">
<style type="text/css">
	.st0{fill:#4D4D4D;}
</style>
<path class="st0" d="M2.7,2.6c-0.5,0.6-0.8,1-1.6,1.6C0.7,3.6,0.6,3.5,0,3c1.2-0.8,2-1.9,2.4-3l1.7,0.3C3.9,0.8,3.9,0.9,3.7,1.2h2.2
	c0.7,0,1.1,0,1.4-0.1v1.2C8,1.6,8.5,0.9,8.7,0l1.7,0.3c-0.3,0.6-0.3,0.6-0.4,0.9h3.2c0.8,0,1.1,0,1.6-0.1v1.6
	c-0.4,0-0.8-0.1-1.5-0.1h-1.5c0.4,0.6,0.4,0.7,0.6,1.1l-1.6,0.5c-0.2-0.6-0.4-1-0.8-1.6H9.1c-0.3,0.4-0.5,0.6-1,1.1v0.3l0,0.3h4.5
	c0.9,0,1.2,0,1.7,0c0,0.3,0,0.5,0,1v1.1c0,0.5,0,0.8,0.1,1.1h-1.7V5.7H2.3v1.7H0.6c0-0.3,0.1-0.6,0.1-1.1V5.3c0-0.5,0-0.7-0.1-1
	c0.5,0,0.8,0,1.7,0h4.1V4.1c0-0.4,0-0.5,0-0.8h1.1C7.1,3.1,7,3,6.7,2.8L7,2.6c-0.3,0-0.4,0-0.7,0H5.2c0.3,0.4,0.4,0.7,0.5,1.1
	L4.2,4.2C4,3.5,3.9,3.2,3.6,2.6H2.7z M2.7,15c0.1-0.6,0.1-1,0.1-1.8V7.4c0-0.5,0-0.8-0.1-1.1c0.4,0,0.8,0.1,1.3,0.1h6.5
	c0.6,0,1,0,1.4-0.1c0,0.3,0,0.6,0,1.1v1.2c0,0.6,0,0.9,0,1.2c-0.4,0-0.8,0-1.3,0H4.4v0.8h6.9c0.6,0,0.9,0,1.3-0.1
	c0,0.4-0.1,0.8-0.1,1.3v1.6c0,0.5,0,1,0.1,1.5h-1.8v-0.7H4.4V15H2.7z M4.4,8.6h5.8V7.7H4.4V8.6z M4.4,12.9h6.4v-1H4.4V12.9z"/>
<path class="st0" d="M17.2,2.5c-0.5,0-0.8,0-1.2,0.1V0.9C16.4,0.9,16.8,1,17.5,1h2.3c0.6,0,1,0,1.4-0.1v1.7c-0.4,0-0.7-0.1-1.2-0.1
	h-0.5v3.1h0.4c0.4,0,0.7,0,1-0.1v1.6c-0.3,0-0.6-0.1-1-0.1h-0.4v3.2c0.7-0.3,0.9-0.4,1.6-0.7l0,1.7c-1.4,0.7-2,1-4.5,2l-0.3,0.1
	l-0.4-1.8c0.5-0.1,0.9-0.2,2-0.6V7.1h-0.5c-0.5,0-0.7,0-1.1,0.1V5.6c0.4,0.1,0.6,0.1,1.1,0.1h0.5V2.5H17.2z M25,11.2h-1.8
	c-0.9,0-1.2,0-1.7,0.1V9.7c0.4,0.1,0.7,0.1,1.6,0.1H25V8.4h-1.5c-1.1,0-1.4,0-1.9,0c0-0.4,0-0.4,0.1-2V2.9c0-1.1,0-1.6-0.1-2.1
	c0.6,0.1,1.1,0.1,2.2,0.1h4.4c1.2,0,1.7,0,2.1-0.1c0,0.5-0.1,1.2-0.1,2.2v3.4c0,1.1,0,1.7,0.1,2.1c-0.5,0-0.8,0-1.7,0h-1.8v1.3h2
	c0.9,0,1.2,0,1.7-0.1v1.6c-0.5-0.1-0.9-0.1-1.7-0.1h-2.1v1.6h2.6c0.8,0,1.3,0,1.7-0.1v1.7c-0.5-0.1-0.9-0.1-1.8-0.1h-6.7
	c-0.8,0-1.3,0-1.8,0.1v-1.7c0.4,0.1,0.8,0.1,1.6,0.1H25V11.2z M23.2,4H25V2.4h-1.8V4z M23.2,6.9H25V5.3h-1.8V6.9z M26.6,4h1.9V2.4
	h-1.9V4z M26.6,6.9h1.9V5.3h-1.9V6.9z"/>
<path class="st0" d="M45.2,4.6c0,0.3,0,0.3-0.1,1.3c-0.1,2.7-0.5,4.3-1.6,5.7c-1,1.2-2.1,2-4.1,2.9c-0.4-0.9-0.6-1.2-1.3-1.8
	c1.3-0.4,2-0.7,2.8-1.4c1.6-1.3,2.1-2.7,2.1-5.7c0-0.5,0-0.6-0.1-1H45.2z M51.7,2.6c-0.2,0.3-0.2,0.3-0.6,1.1
	c-0.6,1.2-1.5,2.4-2.5,3.2c-0.6,0.6-1.2,0.9-1.9,1.3c-0.5-0.7-0.7-0.9-1.4-1.5c1.1-0.5,1.7-0.8,2.3-1.5c0.7-0.6,1.2-1.3,1.5-2h-8.4
	c-1.1,0-1.5,0-2.2,0.1v-2c0.6,0.1,1.1,0.1,2.2,0.1h8.4c1,0,1.1,0,1.6-0.1L51.7,2.6z"/>
<path class="st0" d="M63.8,2c0.5,0,0.7,0,0.9,0c0-1,0.8-1.9,1.8-1.9c1,0,1.9,0.8,1.9,1.8c0,1-0.8,1.9-1.9,1.9c-0.1,0-0.2,0-0.3,0
	C65,9,62.2,12.3,57.1,14.4c-0.4-0.8-0.7-1.2-1.4-1.9c4.4-1.4,7.3-4.4,8.4-8.6h-7.6c-1.2,0-1.5,0-2,0.1V1.9C55,2,55.4,2,56.5,2H63.8z
	 M65.6,2c0,0.6,0.5,1.1,1,1.1c0.6,0,1.1-0.5,1.1-1.1c0-0.6-0.5-1-1.1-1C66.1,0.9,65.6,1.4,65.6,2"/>
<path class="st0" d="M74.1,1c-0.1,0.4-0.1,0.6-0.1,1.4v4.4c0,0.8,0,1,0.1,1.4H72C72,7.9,72,7.4,72,6.9V2.4c0-0.8,0-1-0.1-1.4L74.1,1
	z M81.4,1c-0.1,0.4-0.1,0.6-0.1,1.5v2.2c0,2.5-0.1,3.8-0.4,4.8c-0.5,1.6-1.5,2.8-3.2,3.7c-0.8,0.5-1.6,0.8-3.1,1.2
	c-0.3-0.8-0.4-1.1-1.1-1.9c1.6-0.3,2.5-0.6,3.5-1.3c1.5-1,2-2,2.2-4.1c0.1-0.7,0.1-1.4,0.1-2.7v-2c0-0.8,0-1.2-0.1-1.5H81.4z"/>
<path class="st0" d="M95.6,5.2c0,0.2,0,0.2,0,0.4c-0.2,2.7-0.8,4.4-2.1,5.9c-1,1.2-2.2,2-4.2,2.9c-0.4-0.8-0.6-1.1-1.3-1.8
	c1.4-0.5,2.3-1,3.2-1.8c1.5-1.3,2.1-2.9,2.3-5.7h-3.8c-0.9,1.5-1.5,2.2-2.7,3.2c-0.6-0.7-0.9-0.8-1.6-1.3c1.5-1.2,2.5-2.6,3.4-4.4
	c0.5-1,0.7-1.6,0.8-2.3L91.7,1c-0.1,0.3-0.1,0.3-0.6,1.4c-0.1,0.3-0.3,0.6-0.5,1c0.5,0,0.5,0,7,0c1.2,0,1.3,0,2-0.1v2
	c-0.4,0-0.4,0-1,0c-0.2,0-0.6,0-1.1,0H95.6z"/>
<path class="st0" d="M101.8,6.4c0.7,0.1,1,0.1,2.6,0.1h8.5c1.6,0,1.9,0,2.6-0.1v2.2c-0.6-0.1-0.8-0.1-2.6-0.1h-8.5
	c-1.8,0-2,0-2.6,0.1V6.4z"/>
<path class="st0" d="M119.6,4.8c1.6,0.7,2.9,1.3,4.3,2.2l-1,1.8c-1.3-0.9-2.7-1.7-4.3-2.4L119.6,4.8z M118.8,12c1.2,0,3-0.4,4.6-1
	c2-0.8,3.3-1.8,4.6-3.5c0.9-1.2,1.4-2.1,1.9-3.5c0.7,0.7,0.9,0.9,1.7,1.4c-0.7,1.8-1.4,2.9-2.4,4c-2,2.3-4.8,3.8-8.7,4.5
	c-0.6,0.1-0.8,0.2-1.1,0.3L118.8,12z M120.8,0.9c1.6,0.6,2.9,1.2,4.3,2.1l-1,1.8c-1.5-1-2.9-1.7-4.3-2.2L120.8,0.9z"/>
<path class="st0" d="M137.3,13.9c-0.8,0-1,0-1.4,0.1v-1.8c0.4,0.1,0.8,0.1,1.4,0.1h6.1V9.9h-5.6c-0.8,0-1,0-1.4,0.1V8.2
	c0.4,0.1,0.8,0.1,1.4,0.1h5.6V6.1h-6c-0.8,0-1,0-1.4,0.1V4.4c0.4,0.1,0.8,0.1,1.4,0.1h6.3c0.6,0,1,0,1.5-0.1c0,0.6,0,1,0,1.7v7.3
	c0,0.6,0,0.8,0.1,1.2h-1.8v-0.8H137.3z"/>
<path class="st0" d="M150.6,11.7c1.4-0.1,3.3-0.5,4.7-1.2c2-0.9,3.5-2.1,4.8-3.9c0.7-1,1.2-1.9,1.6-3.2c0.6,0.8,0.9,1,1.7,1.6
	c-1.4,2.9-2.9,4.8-5.1,6.3c-1.6,1.1-3.6,1.9-6.1,2.4c-0.6,0.1-0.7,0.1-1.1,0.3L150.6,11.7z M152,1.8c1.9,1.2,2.9,1.9,4.1,3.1
	l-1.4,1.7c-1.3-1.4-2.6-2.4-4.1-3.2L152,1.8z"/>
</svg>
