<svg xmlns="http://www.w3.org/2000/svg" viewBox="0 0 130.06 13.56"><defs><style>.cls-1{fill:#333;}</style></defs><g id="レイヤー_2" data-name="レイヤー 2"><g id="レイヤー_1-2" data-name="レイヤー 1"><path class="cls-1" d="M4.62.25H7.69l4.58,13H9.34l-.86-2.66H3.71L2.83,13.2H0ZM4.45,8.31H7.76L6.13,3.21Z"/><path class="cls-1" d="M15.72.25h2.71V10.87h6.46V13.2H15.72Z"/><path class="cls-1" d="M29.75,1.6a5.31,5.31,0,0,1,4-1.6,5.35,5.35,0,0,1,4.73,2.14,4.62,4.62,0,0,1,.89,2.42H36.64A3.58,3.58,0,0,0,36,3.16a2.93,2.93,0,0,0-4.42.34,5.81,5.81,0,0,0-.84,3.37,5.09,5.09,0,0,0,.88,3.27,2.78,2.78,0,0,0,2.24,1.08A2.52,2.52,0,0,0,36,10.29a4,4,0,0,0,.68-1.5h2.68a5.81,5.81,0,0,1-1.77,3.44,5.18,5.18,0,0,1-3.67,1.33,5.53,5.53,0,0,1-4.35-1.79A7.25,7.25,0,0,1,28,6.83,7.16,7.16,0,0,1,29.75,1.6Z"/><path class="cls-1" d="M49.16,7h4.9V9.37h-4.9Z"/><path class="cls-1" d="M73.3.25h3.9v13H74.68V3.38c0-.45,0-.8,0-1L72.24,13.2H69.61L67.17,2.33c0,.25,0,.6,0,1s0,.81,0,1.06V13.2H64.67V.25H68.6L71,10.43Z"/><path class="cls-1" d="M85.1,7.37a3.58,3.58,0,0,0,1-.22.75.75,0,0,0,.54-.71.84.84,0,0,0-.42-.81A2.58,2.58,0,0,0,85,5.41a1.62,1.62,0,0,0-1.28.43,1.81,1.81,0,0,0-.35.88H81a3.71,3.71,0,0,1,.7-2.06,4.12,4.12,0,0,1,3.43-1.27A6.09,6.09,0,0,1,87.9,4a2.39,2.39,0,0,1,1.22,2.35v4.4c0,.3,0,.67,0,1.1a1.46,1.46,0,0,0,.15.67.85.85,0,0,0,.37.29v.37H86.94a2.51,2.51,0,0,1-.16-.54,4.61,4.61,0,0,1-.07-.58A5.14,5.14,0,0,1,85.5,13a3.61,3.61,0,0,1-1.83.47,3.21,3.21,0,0,1-2.17-.74,2.68,2.68,0,0,1-.85-2.11A2.74,2.74,0,0,1,82,8.09a6.21,6.21,0,0,1,2.22-.61Zm1.53,1.17a3.23,3.23,0,0,1-.49.25,5.32,5.32,0,0,1-.67.17l-.57.1a4,4,0,0,0-1.15.34,1.14,1.14,0,0,0-.59,1.07,1.08,1.08,0,0,0,.36.92,1.32,1.32,0,0,0,.88.29,2.67,2.67,0,0,0,1.51-.47,2,2,0,0,0,.72-1.74Z"/><path class="cls-1" d="M95.05,10.14a1.69,1.69,0,0,0,.35.95,2.31,2.31,0,0,0,1.73.5,2.61,2.61,0,0,0,1.18-.22.7.7,0,0,0,.44-.66.71.71,0,0,0-.36-.64,14.14,14.14,0,0,0-2.62-.75,5.52,5.52,0,0,1-2.3-1,2.23,2.23,0,0,1-.67-1.73,3,3,0,0,1,1-2.28,4.21,4.21,0,0,1,2.94-.95,5.44,5.44,0,0,1,2.92.71A3.07,3.07,0,0,1,101,6.54h-2.5a1.63,1.63,0,0,0-.27-.77,1.74,1.74,0,0,0-1.42-.51,2,2,0,0,0-1.16.26.74.74,0,0,0-.35.6.65.65,0,0,0,.37.62,15.59,15.59,0,0,0,2.61.7,4.73,4.73,0,0,1,2.25,1.06,2.42,2.42,0,0,1,.74,1.8,2.91,2.91,0,0,1-1.06,2.32,6.35,6.35,0,0,1-6.63,0,3.08,3.08,0,0,1-1.08-2.43Z"/><path class="cls-1" d="M103.94,5.49V3.71h1.33V1h2.48V3.71h1.56V5.49h-1.56v5.07a1.13,1.13,0,0,0,.15.73c.1.1.41.14.92.14h.49v1.87l-1.19,0a3.18,3.18,0,0,1-2.42-.61,1.85,1.85,0,0,1-.43-1.33V5.49Z"/><path class="cls-1" d="M119,3.82a3.88,3.88,0,0,1,1.66,1.41,4.79,4.79,0,0,1,.76,2,12.31,12.31,0,0,1,.08,1.9h-7a2.31,2.31,0,0,0,1,2,2.53,2.53,0,0,0,1.38.36,2.14,2.14,0,0,0,1.39-.44,2.22,2.22,0,0,0,.51-.66h2.56a3.16,3.16,0,0,1-.93,1.73,4.66,4.66,0,0,1-3.6,1.4,5.27,5.27,0,0,1-3.38-1.18A4.67,4.67,0,0,1,112,8.51a5.2,5.2,0,0,1,1.32-3.82,4.63,4.63,0,0,1,3.43-1.32A5.45,5.45,0,0,1,119,3.82ZM115.21,6a2.68,2.68,0,0,0-.67,1.48h4.32A2.1,2.1,0,0,0,118.19,6a2.16,2.16,0,0,0-1.48-.52A2,2,0,0,0,115.21,6Z"/><path class="cls-1" d="M129.85,3.4h.21V6l-.42,0h-.3a2.09,2.09,0,0,0-2,1,3.85,3.85,0,0,0-.29,1.7V13.2H124.5V3.62h2.39V5.29a5.66,5.66,0,0,1,1-1.31,2.77,2.77,0,0,1,1.83-.59Z"/></g></g></svg>